<?xml version="1.0" encoding="UTF-8"?>
<svg width="3300px" height="2200px" viewBox="0 0 3300 2200" version="1.1" xmlns="http://www.w3.org/2000/svg" xmlns:xlink="http://www.w3.org/1999/xlink">
    <!-- Generator: Sketch 59.1 (86144) - https://sketch.com -->
    <title>repeat.1.circle.fill</title>
    <desc>Created with Sketch.</desc>
    <g id="Page-1" stroke="none" stroke-width="1" fill="none" fill-rule="evenodd">
        <g id="repeat.1.circle.fill">
            <g id="Notes">
                <rect id="artboard" fill="#FFFFFF" fill-rule="nonzero" x="0" y="0" width="3300" height="2200"></rect>
                <line x1="263" y1="292" x2="3036" y2="292" id="Path" stroke="#000000" stroke-width="0.5"></line>
                <text id="Weight/Scale-Variations" fill="#000000" font-family="Helvetica" font-size="13" font-weight="normal">
                    <tspan x="263" y="322">Weight/Scale Variations</tspan>
                </text>
                <text id="Ultralight" fill="#000000" font-family="Helvetica" font-size="13" font-weight="normal">
                    <tspan x="533.711" y="322">Ultralight</tspan>
                </text>
                <text id="Thin" fill="#000000" font-family="Helvetica" font-size="13" font-weight="normal">
                    <tspan x="843.422" y="322">Thin</tspan>
                </text>
                <text id="Light" fill="#000000" font-family="Helvetica" font-size="13" font-weight="normal">
                    <tspan x="1138.63" y="322">Light</tspan>
                </text>
                <text id="Regular" fill="#000000" font-family="Helvetica" font-size="13" font-weight="normal">
                    <tspan x="1426.84" y="322">Regular</tspan>
                </text>
                <text id="Medium" fill="#000000" font-family="Helvetica" font-size="13" font-weight="normal">
                    <tspan x="1723.06" y="322">Medium</tspan>
                </text>
                <text id="Semibold" fill="#000000" font-family="Helvetica" font-size="13" font-weight="normal">
                    <tspan x="2015.77" y="322">Semibold</tspan>
                </text>
                <text id="Bold" fill="#000000" font-family="Helvetica" font-size="13" font-weight="normal">
                    <tspan x="2326.48" y="322">Bold</tspan>
                </text>
                <text id="Heavy" fill="#000000" font-family="Helvetica" font-size="13" font-weight="normal">
                    <tspan x="2618.19" y="322">Heavy</tspan>
                </text>
                <text id="Black" fill="#000000" font-family="Helvetica" font-size="13" font-weight="normal">
                    <tspan x="2917.4" y="322">Black</tspan>
                </text>
                <line x1="263" y1="1903" x2="3036" y2="1903" id="Path" stroke="#000000" stroke-width="0.5"></line>
                <g id="Group" transform="translate(264.000000, 1918.000000)" fill="#000000" fill-rule="nonzero">
                    <path d="M8.24805,15.830078 C12.5547,15.830078 16.1387,12.25586 16.1387,7.94922 C16.1387,3.6426 12.5449,0.0684 8.23828,0.0684 C3.94141,0.0684 0.36719,3.6426 0.36719,7.94922 C0.36719,12.25586 3.95117,15.830078 8.24805,15.830078 Z M8.24805,14.345703 C4.70312,14.345703 1.87109,11.50391 1.87109,7.94922 C1.87109,4.3945 4.69336,1.5527 8.23828,1.5527 C11.793,1.5527 14.6445,4.3945 14.6445,7.94922 C14.6445,11.50391 11.8027,14.345703 8.24805,14.345703 Z M4.6543,7.94922 C4.6543,8.37891 4.95703,8.67188 5.40625,8.67188 L7.50586,8.67188 L7.50586,10.79102 C7.50586,11.23047 7.79883,11.5332 8.22852,11.5332 C8.67773,11.5332 8.9707,11.23047 8.9707,10.79102 L8.9707,8.67188 L11.0898,8.67188 C11.5293,8.67188 11.832,8.37891 11.832,7.94922 C11.832,7.50977 11.5293,7.20703 11.0898,7.20703 L8.9707,7.20703 L8.9707,5.09766 C8.9707,4.6484 8.67773,4.3457 8.22852,4.3457 C7.79883,4.3457 7.50586,4.6484 7.50586,5.09766 L7.50586,7.20703 L5.40625,7.20703 C4.95703,7.20703 4.6543,7.50977 4.6543,7.94922 Z" id="Shape"></path>
                </g>
                <g id="Group" transform="translate(282.867000, 1915.000000)" fill="#000000" fill-rule="nonzero">
                    <path d="M10.709,20.91016 C16.1582,20.91016 20.6699,16.38867 20.6699,10.94922 C20.6699,5.5 16.1484,0.9883 10.6992,0.9883 C5.25977,0.9883 0.74805,5.5 0.74805,10.94922 C0.74805,16.38867 5.26953,20.91016 10.709,20.91016 Z M10.709,19.25 C6.09961,19.25 2.41797,15.55859 2.41797,10.94922 C2.41797,6.3398 6.08984,2.6484 10.6992,2.6484 C15.3086,2.6484 19.0098,6.3398 19.0098,10.94922 C19.0098,15.55859 15.3184,19.25 10.709,19.25 Z M6.17773,10.94922 C6.17773,11.42773 6.50977,11.75 7.00781,11.75 L9.8789,11.75 L9.8789,14.63086 C9.8789,15.11914 10.2109,15.46094 10.6895,15.46094 C11.1777,15.46094 11.5195,15.12891 11.5195,14.63086 L11.5195,11.75 L14.4004,11.75 C14.8887,11.75 15.2305,11.42773 15.2305,10.94922 C15.2305,10.46094 14.8887,10.11914 14.4004,10.11914 L11.5195,10.11914 L11.5195,7.248 C11.5195,6.75 11.1777,6.4082 10.6895,6.4082 C10.2109,6.4082 9.8789,6.75 9.8789,7.248 L9.8789,10.11914 L7.00781,10.11914 C6.50977,10.11914 6.17773,10.46094 6.17773,10.94922 Z" id="Shape"></path>
                </g>
                <g id="Group" transform="translate(307.646000, 1913.000000)" fill="#000000" fill-rule="nonzero">
                    <path d="M12.9707,25.66406 C19.9336,25.66406 25.6953,19.9023438 25.6953,12.94922 C25.6953,5.9863 19.9238,0.2246 12.9609,0.2246 C6.00781,0.2246 0.25586,5.9863 0.25586,12.94922 C0.25586,19.9023438 6.01758,25.66406 12.9707,25.66406 Z M12.9707,23.84766 C6.93555,23.84766 2.08203,18.98438 2.08203,12.94922 C2.08203,6.9043 6.92578,2.0508 12.9609,2.0508 C19.0059,2.0508 23.8691,6.9043 23.8691,12.94922 C23.8691,18.98438 19.0156,23.84766 12.9707,23.84766 Z M7.19922,12.94922 C7.19922,13.4668 7.57031,13.82812 8.1172,13.82812 L12.0625,13.82812 L12.0625,17.7832 C12.0625,18.32031 12.4336,18.70117 12.9512,18.70117 C13.4883,18.70117 13.8594,18.33008 13.8594,17.7832 L13.8594,13.82812 L17.8145,13.82812 C18.3516,13.82812 18.7324,13.4668 18.7324,12.94922 C18.7324,12.40234 18.3613,12.03125 17.8145,12.03125 L13.8594,12.03125 L13.8594,8.0859 C13.8594,7.5391 13.4883,7.1582 12.9512,7.1582 C12.4336,7.1582 12.0625,7.5391 12.0625,8.0859 L12.0625,12.03125 L8.1172,12.03125 C7.57031,12.03125 7.19922,12.40234 7.19922,12.94922 Z" id="Shape"></path>
                </g>
                <text id="Design-Variations" fill="#000000" font-family="Helvetica" font-size="13" font-weight="normal">
                    <tspan x="263" y="1953">Design Variations</tspan>
                </text>
                <text id="Symbols-are-supported-in-up-to-nine-weights-and-three-scales." fill="#000000" font-family="Helvetica" font-size="13" font-weight="normal">
                    <tspan x="263" y="1971">Symbols are supported in up to nine weights and three scales.</tspan>
                </text>
                <text id="For-optimal-layout-with-text-and-other-symbols,-vertically-align" fill="#000000" font-family="Helvetica" font-size="13" font-weight="normal">
                    <tspan x="263" y="1989">For optimal layout with text and other symbols, vertically align</tspan>
                </text>
                <text id="symbols-with-the-adjacent-text." fill="#000000" font-family="Helvetica" font-size="13" font-weight="normal">
                    <tspan x="263" y="2007">symbols with the adjacent text.</tspan>
                </text>
                <line x1="776" y1="1919" x2="776" y2="1933" id="Path" stroke="#00AEEF" stroke-width="0.5"></line>
                <g id="Group" transform="translate(778.000000, 1918.000000)" fill="#000000" fill-rule="nonzero">
                    <path d="M1.31055,15.15625 C1.82812,15.15625 2.08203,14.9609375 2.26758,14.414062 L3.52734,10.9668 L9.2891,10.9668 L10.5488,14.414062 C10.7344,14.9609375 10.9883,15.15625 11.4961,15.15625 C12.0137,15.15625 12.3457,14.84375 12.3457,14.355469 C12.3457,14.189453 12.3164,14.033203 12.2383,13.82812 L7.6582,1.6309 C7.43359,1.0352 7.0332,0.7324 6.4082,0.7324 C5.80273,0.7324 5.39258,1.0254 5.17773,1.6211 L0.59766,13.83789 C0.51953,14.042969 0.49023,14.199219 0.49023,14.365234 C0.49023,14.853516 0.80273,15.15625 1.31055,15.15625 Z M4.00586,9.48242 L6.37891,2.9102 L6.42773,2.9102 L8.8008,9.48242 L4.00586,9.48242 Z" id="Shape"></path>
                </g>
                <line x1="793.197" y1="1919" x2="793.197" y2="1933" id="Path" stroke="#00AEEF" stroke-width="0.5"></line>
                <text id="Margins" fill="#000000" font-family="Helvetica" font-size="13" font-weight="normal">
                    <tspan x="776" y="1953">Margins</tspan>
                </text>
                <text id="Leading-and-trailing-margins-on-the-left-and-right-side-of-each-symbol" fill="#000000" font-family="Helvetica" font-size="13" font-weight="normal">
                    <tspan x="776" y="1971">Leading and trailing margins on the left and right side of each symbol</tspan>
                </text>
                <text id="can-be-adjusted-by-modifying-the-x-location-of-the-margin-guidelines." fill="#000000" font-family="Helvetica" font-size="13" font-weight="normal">
                    <tspan x="776" y="1989">can be adjusted by modifying the x-location of the margin guidelines.</tspan>
                </text>
                <text id="Modifications-are-automatically-applied-proportionally-to-all" fill="#000000" font-family="Helvetica" font-size="13" font-weight="normal">
                    <tspan x="776" y="2007">Modifications are automatically applied proportionally to all</tspan>
                </text>
                <text id="scales-and-weights." fill="#000000" font-family="Helvetica" font-size="13" font-weight="normal">
                    <tspan x="776" y="2025">scales and weights.</tspan>
                </text>
                <g id="Group" transform="translate(1291.000000, 1914.000000)" fill="#000000" fill-rule="nonzero">
                    <path d="M0.8418,20.86523 L2.54102,22.57422 C3.40039,23.44336 4.38672,23.38477 5.31445,22.35938 L16.0078,10.57227 L15.041,9.5957 L4.42578,21.27539 C4.07422,21.67578 3.74219,21.77344 3.27344,21.30469 L2.10156,20.14258 C1.63281,19.683594 1.74023,19.341797 2.14062,18.9804688 L13.6152,8.1797 L12.6387,7.2129 L1.04688,18.101562 C0.06055,19.0195312 -0.01758,19.996094 0.8418,20.86523 Z M7.25781,2.6719 C6.83789,3.082 6.80859,3.6582 7.04297,4.0488 C7.27734,4.4102 7.73633,4.6445 8.3809,4.4785 C9.8457,4.1367 11.3691,4.0781 12.7949,5.0156 L12.209,6.4707 C11.8672,7.3008 12.043,7.8867 12.5801,8.4336 L14.875,10.74805 C15.3633,11.23633 15.7734,11.25586 16.3398,11.1582 L17.4043,10.96289 L18.0684,11.63672 L18.0293,12.19336 C17.9902,12.69141 18.1172,13.07227 18.6055,13.55078 L19.3672,14.29297 C19.8457,14.77148 20.4609,14.80078 20.9297,14.33203 L23.8398,11.41211 C24.3086,10.94336 24.2891,10.34766 23.8105,9.86914 L23.0391,9.10742 C22.5605,8.6289 22.1895,8.4727 21.7109,8.5117 L21.1348,8.5605 L20.4902,7.9258 L20.7344,6.8027 C20.8613,6.2363 20.7051,5.7969 20.1191,5.2109 L17.9219,3.0234 C14.582,-0.2969 10.1484,-0.2188 7.25781,2.6719 Z M8.752,3.043 C11.1836,1.2656 14.4746,1.5684 16.7012,3.7949 L19.1328,6.207 C19.3672,6.4414 19.4062,6.627 19.3379,6.9688 L19.0156,8.4531 L20.5195,9.9375 L21.5059,9.87891 C21.7598,9.86914 21.8379,9.88867 22.0332,10.08398 L22.6094,10.66016 L20.168,13.10156 L19.5918,12.52539 C19.3965,12.33008 19.3672,12.25195 19.377,11.98828 L19.4453,11.01172 L17.9512,9.52734 L16.4277,9.78125 C16.1055,9.84961 15.959,9.82031 15.7148,9.58594 L13.7129,7.584 C13.459,7.3496 13.4297,7.1836 13.5859,6.8125 L14.4648,4.7227 C12.9023,3.2676 10.8711,2.6426 8.8398,3.2383 C8.6836,3.2773 8.625,3.1504 8.752,3.043 Z" id="Shape"></path>
                </g>
                <text id="Exporting" fill="#000000" font-family="Helvetica" font-size="13" font-weight="normal">
                    <tspan x="1289" y="1953">Exporting</tspan>
                </text>
                <text id="Symbols-should-be-outlined-when-exporting-to-ensure-the" fill="#000000" font-family="Helvetica" font-size="13" font-weight="normal">
                    <tspan x="1289" y="1971">Symbols should be outlined when exporting to ensure the</tspan>
                </text>
                <text id="design-is-preserved-when-submitting-to-Xcode." fill="#000000" font-family="Helvetica" font-size="13" font-weight="normal">
                    <tspan x="1289" y="1989">design is preserved when submitting to Xcode.</tspan>
                </text>
                <text id="template-version" fill="#000000" font-family="Helvetica" font-size="13" font-weight="normal">
                    <tspan x="2952" y="1933">Template v.4.0</tspan>
                </text>
                <text id="Requires-Xcode-14-or-greater" fill="#000000" font-family="Helvetica" font-size="13" font-weight="normal">
                    <tspan x="2865" y="1951">Requires Xcode 14 or greater</tspan>
                </text>
                <text id="descriptive-name" fill="#000000" font-family="Helvetica" font-size="13" font-weight="normal">
                    <tspan x="2843" y="1969">Generated from repeat.1.circle.fill</tspan>
                </text>
                <text id="Typeset-at-100-points" fill="#000000" font-family="Helvetica" font-size="13" font-weight="normal">
                    <tspan x="2912" y="1987">Typeset at 100 points</tspan>
                </text>
                <text id="Small" fill="#000000" font-family="Helvetica" font-size="13" font-weight="normal">
                    <tspan x="263" y="726">Small</tspan>
                </text>
                <text id="Medium" fill="#000000" font-family="Helvetica" font-size="13" font-weight="normal">
                    <tspan x="263" y="1156">Medium</tspan>
                </text>
                <text id="Large" fill="#000000" font-family="Helvetica" font-size="13" font-weight="normal">
                    <tspan x="263" y="1586">Large</tspan>
                </text>
            </g>
            <g id="Guides" transform="translate(263.000000, 600.000000)">
                <g id="H-reference" transform="translate(76.000000, 25.000000)" fill="#27AAE1" fill-rule="nonzero">
                    <path d="M0.993654,71 L3.63775,71 L29.3281,3.8677 L30.0303,3.8677 L30.0303,0.541 L28.1226,0.541 L0.993654,71 Z M11.6885,46.5201 L46.9815,46.5201 L46.2315,44.2715 L12.4385,44.2715 L11.6885,46.5201 Z M55.1196,71 L57.7637,71 L30.6382,0.541 L29.4326,0.541 L29.4326,3.8677 L55.1196,71 Z" id="Shape"></path>
                </g>
                <line x1="0" y1="96" x2="2773" y2="96" id="Baseline-S" stroke="#27AAE1" stroke-width="0.5"></line>
                <line x1="0" y1="25.541" x2="2773" y2="25.541" id="Capline-S" stroke="#27AAE1" stroke-width="0.5"></line>
                <g id="H-reference" transform="translate(76.000000, 455.000000)" fill="#27AAE1" fill-rule="nonzero">
                    <path d="M0.993654,71 L3.63775,71 L29.3281,3.8677 L30.0303,3.8677 L30.0303,0.541 L28.1226,0.541 L0.993654,71 Z M11.6885,46.5201 L46.9815,46.5201 L46.2315,44.2715 L12.4385,44.2715 L11.6885,46.5201 Z M55.1196,71 L57.7637,71 L30.6382,0.541 L29.4326,0.541 L29.4326,3.8677 L55.1196,71 Z" id="Shape"></path>
                </g>
                <line x1="0" y1="526" x2="2773" y2="526" id="Baseline-M" stroke="#27AAE1" stroke-width="0.5"></line>
                <line x1="0" y1="455.54" x2="2773" y2="455.54" id="Capline-M" stroke="#27AAE1" stroke-width="0.5"></line>
                <g id="H-reference" transform="translate(76.000000, 885.000000)" fill="#27AAE1" fill-rule="nonzero">
                    <path d="M0.993654,71 L3.63775,71 L29.3281,3.8677 L30.0303,3.8677 L30.0303,0.541 L28.1226,0.541 L0.993654,71 Z M11.6885,46.5201 L46.9815,46.5201 L46.2315,44.2715 L12.4385,44.2715 L11.6885,46.5201 Z M55.1196,71 L57.7637,71 L30.6382,0.541 L29.4326,0.541 L29.4326,3.8677 L55.1196,71 Z" id="Shape"></path>
                </g>
                <line x1="0" y1="956" x2="2773" y2="956" id="Baseline-L" stroke="#27AAE1" stroke-width="0.5"></line>
                <line x1="0" y1="885.54" x2="2773" y2="885.54" id="Capline-L" stroke="#27AAE1" stroke-width="0.5"></line>
                <line x1="252.649" y1="0.785" x2="252.649" y2="120.121" id="left-margin-Ultralight-S" stroke="#00AEEF" stroke-width="0.5"></line>
                <line x1="340.773" y1="0.785" x2="340.773" y2="120.121" id="right-margin-Ultralight-S" stroke="#00AEEF" stroke-width="0.5"></line>
                <line x1="1140.58" y1="0.785" x2="1140.58" y2="120.121" id="left-margin-Regular-S" stroke="#00AEEF" stroke-width="0.5"></line>
                <line x1="1233.11" y1="0.785" x2="1233.11" y2="120.121" id="right-margin-Regular-S" stroke="#00AEEF" stroke-width="0.5"></line>
                <line x1="2621.57" y1="0.785" x2="2621.57" y2="120.121" id="left-margin-Black-S" stroke="#00AEEF" stroke-width="0.5"></line>
                <line x1="2719.23" y1="0.785" x2="2719.23" y2="120.121" id="right-margin-Black-S" stroke="#00AEEF" stroke-width="0.5"></line>
            </g>
            <g id="Symbols" transform="translate(515.000000, 606.000000)" fill="#000000" fill-rule="nonzero">
                <g id="Black-S" transform="translate(2366.570000, 0.000000)">
                    <path d="M16.0961413,107.4648 L91.2462872,107.4648 C101.64958,107.4648 107.168587,101.801302 107.168587,91.5589018 L107.168587,16.3705389 C107.168587,6.12823479 101.64958,0.4648 91.2462872,0.4648 L16.0961413,0.4648 C5.69826225,0.4648 0.173873486,5.9836473 0.173873486,16.3705389 L0.173873486,91.5589018 C0.173873486,101.945921 5.69826225,107.4648 16.0961413,107.4648 Z M26.3398,54.9414 L26.3398,52.5 C26.3398,46.0059 31.0762,41.7578 38.2051,41.7578 L46.3105,41.7578 L46.3105,38.2422 C46.3105,36.6309 47.3848,35.5078 49.0938,35.5078 C49.875,35.5078 50.7051,35.8008 51.1445,36.2402 L59.2988,43.125 C60.666,44.2969 60.666,46.0059 59.2988,47.1777 L51.1445,54.0625 C50.6074,54.5508 49.8262,54.7949 49.0938,54.7949 C47.3848,54.7949 46.3105,53.6719 46.3105,52.0605 L46.3105,48.3496 L37.8145,48.3496 C34.8359,48.3496 32.9316,50.1562 32.9316,52.8906 L32.9316,54.9414 C32.9316,56.7969 31.4668,58.2617 29.6113,58.2617 C27.8047,58.2617 26.3398,56.748 26.3398,54.9414 Z M72.9707,57.2363 L72.9707,59.6289 C72.9707,66.1719 68.2344,70.4199 61.0566,70.4199 L48.3613,70.4199 L48.3613,73.9844 C48.3613,75.5957 47.2383,76.7188 45.5781,76.7188 C44.748,76.7188 43.9668,76.4258 43.4785,75.9863 L35.4219,69.1504 C34.0547,67.9785 34.0059,66.2207 35.373,65.0488 L43.4785,58.1641 C44.0156,57.6758 44.7969,57.4316 45.5781,57.4316 C47.2383,57.4316 48.3613,58.5547 48.3613,60.166 L48.3613,63.8281 L61.4473,63.8281 C64.4258,63.8281 66.3301,62.0215 66.3301,59.2871 L66.3301,57.2363 C66.3301,55.4297 67.7949,53.9648 69.6504,53.9648 C71.5059,53.9648 72.9707,55.4297 72.9707,57.2363 Z M69.6992,52.1094 C67.5996,52.1094 66.1836,50.7422 66.1836,48.6426 L66.1836,43.3691 L66.1836,43.3691 L65.8418,43.7109 C65.3047,44.1016 64.6699,44.3457 64.084,44.3457 C62.6191,44.3457 61.3984,43.1738 61.3984,41.7578 C61.3984,40.8789 61.7891,40.0488 62.5703,39.4629 L65.3535,37.3145 C66.7207,36.2402 67.7461,35.8496 69.2109,35.8496 C71.5059,35.8496 73.0684,37.4609 73.0684,39.8047 L73.0684,48.6426 C73.0684,50.7422 71.7012,52.1094 69.6992,52.1094 Z" id="Shape"></path>
                </g>
                <g id="Regular-S" transform="translate(888.580000, 8.000000)">
                    <path d="M14.7156689,97.9316 L82.8424367,97.9316 C92.2734594,97.9316 97.2766709,92.7974004 97.2766709,83.5122344 L97.2766709,15.3508213 C97.2766709,6.06574182 92.2734594,0.9316 82.8424367,0.9316 L14.7156689,0.9316 C5.28955428,0.9316 0.281463532,5.93466718 0.281463532,15.3508213 L0.281463532,83.5122344 C0.281463532,92.928504 5.28955428,97.9316 14.7156689,97.9316 Z M20.3613,46.7949 L20.3613,44.2559 C20.3613,37.7129 25.0488,33.5137 32.2266,33.5137 L41.8457,33.5137 L41.8457,28.875 C41.8457,27.6055 42.5781,26.7754 43.9453,26.7754 C44.5312,26.7754 45.1172,26.9707 45.5078,27.3613 L54.2969,34.6855 C55.3711,35.6133 55.3711,36.8828 54.2969,37.7617 L45.5078,45.1836 C45.1172,45.5254 44.5312,45.6719 43.9453,45.6719 C42.5781,45.6719 41.8457,44.9395 41.8457,43.6699 L41.8457,38.7871 L31.7871,38.7871 C28.0762,38.7871 25.5859,41.1797 25.5859,44.5977 L25.5859,46.7949 C25.5859,48.2598 24.4141,49.4316 22.9492,49.4316 C21.4844,49.4316 20.3613,48.2598 20.3613,46.7949 Z M68.6523,49.2363 L68.6523,51.7754 C68.6523,58.2695 63.9648,62.5176 56.7383,62.5176 L42.1875,62.5176 L42.1875,67.2539 C42.1875,68.5234 41.4062,69.3047 40.0391,69.3047 C39.4531,69.3047 38.916,69.1094 38.4766,68.7188 L29.7363,61.3945 C28.6621,60.5156 28.6133,59.1973 29.6875,58.3184 L38.4766,50.9453 C38.916,50.6035 39.4531,50.4082 40.0391,50.4082 C41.3574,50.4082 42.1875,51.1895 42.1875,52.459 L42.1875,57.2441 L57.1777,57.2441 C60.8887,57.2441 63.3789,54.9004 63.3789,51.4336 L63.3789,49.2363 C63.3789,47.7715 64.5508,46.6484 66.0156,46.6484 C67.4805,46.6484 68.6523,47.7715 68.6523,49.2363 Z M66.0645,42.8398 C64.3555,42.8398 63.2812,41.7168 63.2812,40.0566 L63.2812,32.0488 L63.7207,32.0488 L61.4258,33.9043 C60.9863,34.2461 60.5469,34.3926 60.0586,34.3926 C58.9355,34.3926 58.1543,33.6113 58.1543,32.5371 C58.1543,31.8535 58.3984,31.3164 58.9844,30.7793 L62.0117,28.5332 C63.3301,27.459 64.2578,27.1172 65.5762,27.1172 C67.4805,27.1172 68.75,28.4355 68.75,30.3887 L68.75,40.0566 C68.75,41.7656 67.7246,42.8398 66.0645,42.8398 Z" id="Shape"></path>
                </g>
                <g id="Ultralight-S" transform="translate(0.649000, 8.000000)">
                    <path d="M14.1288234,93.3657 L79.095071,93.3657 C88.0885721,93.3657 92.8596758,88.469685 92.8596758,79.615274 L92.8596758,14.6159883 C92.8596758,5.76165999 88.0885721,0.8657 79.095071,0.8657 L14.1288234,0.8657 C5.14000274,0.8657 0.364246106,5.63666612 0.364246106,14.6159883 L0.364246106,79.615274 C0.364246106,88.5947063 5.14000274,93.3657 14.1288234,93.3657 Z M22.0425,46.023 L22.0425,44.4829 C22.0425,38.6211 25.8218,35.1938 32.2275,35.1938 L41.8921,35.1938 L41.8921,29.5561 C41.8921,29.0132 42.2612,28.6372 42.8111,28.6372 C43.0791,28.6372 43.3472,28.6963 43.6016,28.9053 L51.6641,35.0034 C52.3296,35.5225 52.3296,36.5649 51.6641,37.0806 L43.6016,43.231 C43.3472,43.4365 43.0791,43.4922 42.8111,43.4922 C42.2612,43.4922 41.8921,43.1231 41.8921,42.5347 L41.8921,37.334 L31.6519,37.334 C27.169,37.334 24.3609,40.2715 24.3609,44.8701 L24.3609,46.023 C24.3609,46.5796 23.8247,47.1157 23.2227,47.1157 C22.5752,47.1157 22.0425,46.5796 22.0425,46.023 Z M63.9307,47.874 L63.9307,49.4141 C63.9307,55.2725 60.1514,58.7032 53.7876,58.7032 L39.6001,58.7032 L39.6001,64.3931 C39.6001,64.9361 39.2276,65.2632 38.6323,65.2632 C38.3189,65.2632 38.0542,65.1587 37.7964,64.9497 L29.8281,58.897 C29.1172,58.336 29.1138,57.3355 29.8247,56.8198 L37.7964,50.7637 C38.0542,50.5581 38.3189,50.4536 38.6323,50.4536 C39.2696,50.4536 39.6001,50.8262 39.6001,51.3691 L39.6001,56.563 L54.3179,56.563 C58.8462,56.563 61.6543,53.6289 61.6543,49.0269 L61.6543,47.874 C61.6543,47.272 62.145,46.7393 62.7925,46.7393 C63.44,46.7393 63.9307,47.272 63.9307,47.874 Z M62.6143,40.978 C61.8589,40.978 61.375,40.4453 61.375,39.7842 L61.375,30.7774 L61.2241,30.7774 L58.7022,32.542 C58.4444,32.7022 58.232,32.7578 58.0615,32.7578 C57.5288,32.7578 57.2017,32.3399 57.2017,31.9014 C57.2017,31.6265 57.3096,31.3618 57.6231,31.1426 L60.6958,28.9419 C61.2422,28.5942 61.7158,28.4341 62.2622,28.4341 C63.1675,28.4341 63.8921,28.8896 63.8921,29.9346 L63.8921,39.7842 C63.8921,40.4942 63.3663,40.978 62.6143,40.978 Z" id="Shape"></path>
                </g>
            </g>
        </g>
    </g>
</svg>