<?xml version="1.0" encoding="UTF-8"?>
<svg width="3300px" height="2200px" viewBox="0 0 3300 2200" version="1.1" xmlns="http://www.w3.org/2000/svg" xmlns:xlink="http://www.w3.org/1999/xlink">
    <!-- Generator: Sketch 59.1 (86144) - https://sketch.com -->
    <title>shuffle.square.fill</title>
    <desc>Created with Sketch.</desc>
    <g id="Page-1" stroke="none" stroke-width="1" fill="none" fill-rule="evenodd">
        <g id="shuffle.square.fill">
            <g id="Notes">
                <rect id="artboard" fill="#FFFFFF" fill-rule="nonzero" x="0" y="0" width="3300" height="2200"></rect>
                <line x1="263" y1="292" x2="3036" y2="292" id="Path" stroke="#000000" stroke-width="0.5"></line>
                <text id="Weight/Scale-Variations" fill="#000000" font-family="Helvetica" font-size="13" font-weight="normal">
                    <tspan x="263" y="322">Weight/Scale Variations</tspan>
                </text>
                <text id="Ultralight" fill="#000000" font-family="Helvetica" font-size="13" font-weight="normal">
                    <tspan x="533.711" y="322">Ultralight</tspan>
                </text>
                <text id="Thin" fill="#000000" font-family="Helvetica" font-size="13" font-weight="normal">
                    <tspan x="843.422" y="322">Thin</tspan>
                </text>
                <text id="Light" fill="#000000" font-family="Helvetica" font-size="13" font-weight="normal">
                    <tspan x="1138.63" y="322">Light</tspan>
                </text>
                <text id="Regular" fill="#000000" font-family="Helvetica" font-size="13" font-weight="normal">
                    <tspan x="1426.84" y="322">Regular</tspan>
                </text>
                <text id="Medium" fill="#000000" font-family="Helvetica" font-size="13" font-weight="normal">
                    <tspan x="1723.06" y="322">Medium</tspan>
                </text>
                <text id="Semibold" fill="#000000" font-family="Helvetica" font-size="13" font-weight="normal">
                    <tspan x="2015.77" y="322">Semibold</tspan>
                </text>
                <text id="Bold" fill="#000000" font-family="Helvetica" font-size="13" font-weight="normal">
                    <tspan x="2326.48" y="322">Bold</tspan>
                </text>
                <text id="Heavy" fill="#000000" font-family="Helvetica" font-size="13" font-weight="normal">
                    <tspan x="2618.19" y="322">Heavy</tspan>
                </text>
                <text id="Black" fill="#000000" font-family="Helvetica" font-size="13" font-weight="normal">
                    <tspan x="2917.4" y="322">Black</tspan>
                </text>
                <line x1="263" y1="1903" x2="3036" y2="1903" id="Path" stroke="#000000" stroke-width="0.5"></line>
                <g id="Group" transform="translate(264.000000, 1918.000000)" fill="#000000" fill-rule="nonzero">
                    <path d="M8.24805,15.830078 C12.5547,15.830078 16.1387,12.25586 16.1387,7.94922 C16.1387,3.6426 12.5449,0.0684 8.23828,0.0684 C3.94141,0.0684 0.36719,3.6426 0.36719,7.94922 C0.36719,12.25586 3.95117,15.830078 8.24805,15.830078 Z M8.24805,14.345703 C4.70312,14.345703 1.87109,11.50391 1.87109,7.94922 C1.87109,4.3945 4.69336,1.5527 8.23828,1.5527 C11.793,1.5527 14.6445,4.3945 14.6445,7.94922 C14.6445,11.50391 11.8027,14.345703 8.24805,14.345703 Z M4.6543,7.94922 C4.6543,8.37891 4.95703,8.67188 5.40625,8.67188 L7.50586,8.67188 L7.50586,10.79102 C7.50586,11.23047 7.79883,11.5332 8.22852,11.5332 C8.67773,11.5332 8.9707,11.23047 8.9707,10.79102 L8.9707,8.67188 L11.0898,8.67188 C11.5293,8.67188 11.832,8.37891 11.832,7.94922 C11.832,7.50977 11.5293,7.20703 11.0898,7.20703 L8.9707,7.20703 L8.9707,5.09766 C8.9707,4.6484 8.67773,4.3457 8.22852,4.3457 C7.79883,4.3457 7.50586,4.6484 7.50586,5.09766 L7.50586,7.20703 L5.40625,7.20703 C4.95703,7.20703 4.6543,7.50977 4.6543,7.94922 Z" id="Shape"></path>
                </g>
                <g id="Group" transform="translate(282.867000, 1915.000000)" fill="#000000" fill-rule="nonzero">
                    <path d="M10.709,20.91016 C16.1582,20.91016 20.6699,16.38867 20.6699,10.94922 C20.6699,5.5 16.1484,0.9883 10.6992,0.9883 C5.25977,0.9883 0.74805,5.5 0.74805,10.94922 C0.74805,16.38867 5.26953,20.91016 10.709,20.91016 Z M10.709,19.25 C6.09961,19.25 2.41797,15.55859 2.41797,10.94922 C2.41797,6.3398 6.08984,2.6484 10.6992,2.6484 C15.3086,2.6484 19.0098,6.3398 19.0098,10.94922 C19.0098,15.55859 15.3184,19.25 10.709,19.25 Z M6.17773,10.94922 C6.17773,11.42773 6.50977,11.75 7.00781,11.75 L9.8789,11.75 L9.8789,14.63086 C9.8789,15.11914 10.2109,15.46094 10.6895,15.46094 C11.1777,15.46094 11.5195,15.12891 11.5195,14.63086 L11.5195,11.75 L14.4004,11.75 C14.8887,11.75 15.2305,11.42773 15.2305,10.94922 C15.2305,10.46094 14.8887,10.11914 14.4004,10.11914 L11.5195,10.11914 L11.5195,7.248 C11.5195,6.75 11.1777,6.4082 10.6895,6.4082 C10.2109,6.4082 9.8789,6.75 9.8789,7.248 L9.8789,10.11914 L7.00781,10.11914 C6.50977,10.11914 6.17773,10.46094 6.17773,10.94922 Z" id="Shape"></path>
                </g>
                <g id="Group" transform="translate(307.646000, 1913.000000)" fill="#000000" fill-rule="nonzero">
                    <path d="M12.9707,25.66406 C19.9336,25.66406 25.6953,19.9023438 25.6953,12.94922 C25.6953,5.9863 19.9238,0.2246 12.9609,0.2246 C6.00781,0.2246 0.25586,5.9863 0.25586,12.94922 C0.25586,19.9023438 6.01758,25.66406 12.9707,25.66406 Z M12.9707,23.84766 C6.93555,23.84766 2.08203,18.98438 2.08203,12.94922 C2.08203,6.9043 6.92578,2.0508 12.9609,2.0508 C19.0059,2.0508 23.8691,6.9043 23.8691,12.94922 C23.8691,18.98438 19.0156,23.84766 12.9707,23.84766 Z M7.19922,12.94922 C7.19922,13.4668 7.57031,13.82812 8.1172,13.82812 L12.0625,13.82812 L12.0625,17.7832 C12.0625,18.32031 12.4336,18.70117 12.9512,18.70117 C13.4883,18.70117 13.8594,18.33008 13.8594,17.7832 L13.8594,13.82812 L17.8145,13.82812 C18.3516,13.82812 18.7324,13.4668 18.7324,12.94922 C18.7324,12.40234 18.3613,12.03125 17.8145,12.03125 L13.8594,12.03125 L13.8594,8.0859 C13.8594,7.5391 13.4883,7.1582 12.9512,7.1582 C12.4336,7.1582 12.0625,7.5391 12.0625,8.0859 L12.0625,12.03125 L8.1172,12.03125 C7.57031,12.03125 7.19922,12.40234 7.19922,12.94922 Z" id="Shape"></path>
                </g>
                <text id="Design-Variations" fill="#000000" font-family="Helvetica" font-size="13" font-weight="normal">
                    <tspan x="263" y="1953">Design Variations</tspan>
                </text>
                <text id="Symbols-are-supported-in-up-to-nine-weights-and-three-scales." fill="#000000" font-family="Helvetica" font-size="13" font-weight="normal">
                    <tspan x="263" y="1971">Symbols are supported in up to nine weights and three scales.</tspan>
                </text>
                <text id="For-optimal-layout-with-text-and-other-symbols,-vertically-align" fill="#000000" font-family="Helvetica" font-size="13" font-weight="normal">
                    <tspan x="263" y="1989">For optimal layout with text and other symbols, vertically align</tspan>
                </text>
                <text id="symbols-with-the-adjacent-text." fill="#000000" font-family="Helvetica" font-size="13" font-weight="normal">
                    <tspan x="263" y="2007">symbols with the adjacent text.</tspan>
                </text>
                <line x1="776" y1="1919" x2="776" y2="1933" id="Path" stroke="#00AEEF" stroke-width="0.5"></line>
                <g id="Group" transform="translate(778.000000, 1918.000000)" fill="#000000" fill-rule="nonzero">
                    <path d="M1.31055,15.15625 C1.82812,15.15625 2.08203,14.9609375 2.26758,14.414062 L3.52734,10.9668 L9.2891,10.9668 L10.5488,14.414062 C10.7344,14.9609375 10.9883,15.15625 11.4961,15.15625 C12.0137,15.15625 12.3457,14.84375 12.3457,14.355469 C12.3457,14.189453 12.3164,14.033203 12.2383,13.82812 L7.6582,1.6309 C7.43359,1.0352 7.0332,0.7324 6.4082,0.7324 C5.80273,0.7324 5.39258,1.0254 5.17773,1.6211 L0.59766,13.83789 C0.51953,14.042969 0.49023,14.199219 0.49023,14.365234 C0.49023,14.853516 0.80273,15.15625 1.31055,15.15625 Z M4.00586,9.48242 L6.37891,2.9102 L6.42773,2.9102 L8.8008,9.48242 L4.00586,9.48242 Z" id="Shape"></path>
                </g>
                <line x1="793.197" y1="1919" x2="793.197" y2="1933" id="Path" stroke="#00AEEF" stroke-width="0.5"></line>
                <text id="Margins" fill="#000000" font-family="Helvetica" font-size="13" font-weight="normal">
                    <tspan x="776" y="1953">Margins</tspan>
                </text>
                <text id="Leading-and-trailing-margins-on-the-left-and-right-side-of-each-symbol" fill="#000000" font-family="Helvetica" font-size="13" font-weight="normal">
                    <tspan x="776" y="1971">Leading and trailing margins on the left and right side of each symbol</tspan>
                </text>
                <text id="can-be-adjusted-by-modifying-the-x-location-of-the-margin-guidelines." fill="#000000" font-family="Helvetica" font-size="13" font-weight="normal">
                    <tspan x="776" y="1989">can be adjusted by modifying the x-location of the margin guidelines.</tspan>
                </text>
                <text id="Modifications-are-automatically-applied-proportionally-to-all" fill="#000000" font-family="Helvetica" font-size="13" font-weight="normal">
                    <tspan x="776" y="2007">Modifications are automatically applied proportionally to all</tspan>
                </text>
                <text id="scales-and-weights." fill="#000000" font-family="Helvetica" font-size="13" font-weight="normal">
                    <tspan x="776" y="2025">scales and weights.</tspan>
                </text>
                <g id="Group" transform="translate(1291.000000, 1914.000000)" fill="#000000" fill-rule="nonzero">
                    <path d="M0.8418,20.86523 L2.54102,22.57422 C3.40039,23.44336 4.38672,23.38477 5.31445,22.35938 L16.0078,10.57227 L15.041,9.5957 L4.42578,21.27539 C4.07422,21.67578 3.74219,21.77344 3.27344,21.30469 L2.10156,20.14258 C1.63281,19.683594 1.74023,19.341797 2.14062,18.9804688 L13.6152,8.1797 L12.6387,7.2129 L1.04688,18.101562 C0.06055,19.0195312 -0.01758,19.996094 0.8418,20.86523 Z M7.25781,2.6719 C6.83789,3.082 6.80859,3.6582 7.04297,4.0488 C7.27734,4.4102 7.73633,4.6445 8.3809,4.4785 C9.8457,4.1367 11.3691,4.0781 12.7949,5.0156 L12.209,6.4707 C11.8672,7.3008 12.043,7.8867 12.5801,8.4336 L14.875,10.74805 C15.3633,11.23633 15.7734,11.25586 16.3398,11.1582 L17.4043,10.96289 L18.0684,11.63672 L18.0293,12.19336 C17.9902,12.69141 18.1172,13.07227 18.6055,13.55078 L19.3672,14.29297 C19.8457,14.77148 20.4609,14.80078 20.9297,14.33203 L23.8398,11.41211 C24.3086,10.94336 24.2891,10.34766 23.8105,9.86914 L23.0391,9.10742 C22.5605,8.6289 22.1895,8.4727 21.7109,8.5117 L21.1348,8.5605 L20.4902,7.9258 L20.7344,6.8027 C20.8613,6.2363 20.7051,5.7969 20.1191,5.2109 L17.9219,3.0234 C14.582,-0.2969 10.1484,-0.2188 7.25781,2.6719 Z M8.752,3.043 C11.1836,1.2656 14.4746,1.5684 16.7012,3.7949 L19.1328,6.207 C19.3672,6.4414 19.4062,6.627 19.3379,6.9688 L19.0156,8.4531 L20.5195,9.9375 L21.5059,9.87891 C21.7598,9.86914 21.8379,9.88867 22.0332,10.08398 L22.6094,10.66016 L20.168,13.10156 L19.5918,12.52539 C19.3965,12.33008 19.3672,12.25195 19.377,11.98828 L19.4453,11.01172 L17.9512,9.52734 L16.4277,9.78125 C16.1055,9.84961 15.959,9.82031 15.7148,9.58594 L13.7129,7.584 C13.459,7.3496 13.4297,7.1836 13.5859,6.8125 L14.4648,4.7227 C12.9023,3.2676 10.8711,2.6426 8.8398,3.2383 C8.6836,3.2773 8.625,3.1504 8.752,3.043 Z" id="Shape"></path>
                </g>
                <text id="Exporting" fill="#000000" font-family="Helvetica" font-size="13" font-weight="normal">
                    <tspan x="1289" y="1953">Exporting</tspan>
                </text>
                <text id="Symbols-should-be-outlined-when-exporting-to-ensure-the" fill="#000000" font-family="Helvetica" font-size="13" font-weight="normal">
                    <tspan x="1289" y="1971">Symbols should be outlined when exporting to ensure the</tspan>
                </text>
                <text id="design-is-preserved-when-submitting-to-Xcode." fill="#000000" font-family="Helvetica" font-size="13" font-weight="normal">
                    <tspan x="1289" y="1989">design is preserved when submitting to Xcode.</tspan>
                </text>
                <text id="template-version" fill="#000000" font-family="Helvetica" font-size="13" font-weight="normal">
                    <tspan x="2952" y="1933">Template v.4.0</tspan>
                </text>
                <text id="Requires-Xcode-14-or-greater" fill="#000000" font-family="Helvetica" font-size="13" font-weight="normal">
                    <tspan x="2865" y="1951">Requires Xcode 14 or greater</tspan>
                </text>
                <text id="descriptive-name" fill="#000000" font-family="Helvetica" font-size="13" font-weight="normal">
                    <tspan x="2853" y="1969">Generated from shuffle.circle.fill</tspan>
                </text>
                <text id="Typeset-at-100-points" fill="#000000" font-family="Helvetica" font-size="13" font-weight="normal">
                    <tspan x="2912" y="1987">Typeset at 100 points</tspan>
                </text>
                <text id="Small" fill="#000000" font-family="Helvetica" font-size="13" font-weight="normal">
                    <tspan x="263" y="726">Small</tspan>
                </text>
                <text id="Medium" fill="#000000" font-family="Helvetica" font-size="13" font-weight="normal">
                    <tspan x="263" y="1156">Medium</tspan>
                </text>
                <text id="Large" fill="#000000" font-family="Helvetica" font-size="13" font-weight="normal">
                    <tspan x="263" y="1586">Large</tspan>
                </text>
            </g>
            <g id="Guides" transform="translate(263.000000, 600.000000)">
                <g id="H-reference" transform="translate(76.000000, 25.000000)" fill="#27AAE1" fill-rule="nonzero">
                    <path d="M0.993654,71 L3.63775,71 L29.3281,3.8677 L30.0303,3.8677 L30.0303,0.541 L28.1226,0.541 L0.993654,71 Z M11.6885,46.5201 L46.9815,46.5201 L46.2315,44.2715 L12.4385,44.2715 L11.6885,46.5201 Z M55.1196,71 L57.7637,71 L30.6382,0.541 L29.4326,0.541 L29.4326,3.8677 L55.1196,71 Z" id="Shape"></path>
                </g>
                <line x1="0" y1="96" x2="2773" y2="96" id="Baseline-S" stroke="#27AAE1" stroke-width="0.5"></line>
                <line x1="0" y1="25.541" x2="2773" y2="25.541" id="Capline-S" stroke="#27AAE1" stroke-width="0.5"></line>
                <g id="H-reference" transform="translate(76.000000, 455.000000)" fill="#27AAE1" fill-rule="nonzero">
                    <path d="M0.993654,71 L3.63775,71 L29.3281,3.8677 L30.0303,3.8677 L30.0303,0.541 L28.1226,0.541 L0.993654,71 Z M11.6885,46.5201 L46.9815,46.5201 L46.2315,44.2715 L12.4385,44.2715 L11.6885,46.5201 Z M55.1196,71 L57.7637,71 L30.6382,0.541 L29.4326,0.541 L29.4326,3.8677 L55.1196,71 Z" id="Shape"></path>
                </g>
                <line x1="0" y1="526" x2="2773" y2="526" id="Baseline-M" stroke="#27AAE1" stroke-width="0.5"></line>
                <line x1="0" y1="455.54" x2="2773" y2="455.54" id="Capline-M" stroke="#27AAE1" stroke-width="0.5"></line>
                <g id="H-reference" transform="translate(76.000000, 885.000000)" fill="#27AAE1" fill-rule="nonzero">
                    <path d="M0.993654,71 L3.63775,71 L29.3281,3.8677 L30.0303,3.8677 L30.0303,0.541 L28.1226,0.541 L0.993654,71 Z M11.6885,46.5201 L46.9815,46.5201 L46.2315,44.2715 L12.4385,44.2715 L11.6885,46.5201 Z M55.1196,71 L57.7637,71 L30.6382,0.541 L29.4326,0.541 L29.4326,3.8677 L55.1196,71 Z" id="Shape"></path>
                </g>
                <line x1="0" y1="956" x2="2773" y2="956" id="Baseline-L" stroke="#27AAE1" stroke-width="0.5"></line>
                <line x1="0" y1="885.54" x2="2773" y2="885.54" id="Capline-L" stroke="#27AAE1" stroke-width="0.5"></line>
                <line x1="252.649" y1="0.785" x2="252.649" y2="120.121" id="left-margin-Ultralight-S" stroke="#00AEEF" stroke-width="0.5"></line>
                <line x1="340.773" y1="0.785" x2="340.773" y2="120.121" id="right-margin-Ultralight-S" stroke="#00AEEF" stroke-width="0.5"></line>
                <line x1="1140.58" y1="0.785" x2="1140.58" y2="120.121" id="left-margin-Regular-S" stroke="#00AEEF" stroke-width="0.5"></line>
                <line x1="1233.11" y1="0.785" x2="1233.11" y2="120.121" id="right-margin-Regular-S" stroke="#00AEEF" stroke-width="0.5"></line>
                <line x1="2621.57" y1="0.785" x2="2621.57" y2="120.121" id="left-margin-Black-S" stroke="#00AEEF" stroke-width="0.5"></line>
                <line x1="2719.23" y1="0.785" x2="2719.23" y2="120.121" id="right-margin-Black-S" stroke="#00AEEF" stroke-width="0.5"></line>
            </g>
            <g id="Symbols" transform="translate(512.000000, 607.000000)" fill="#000000" fill-rule="nonzero">
                <g id="Black-S" transform="translate(2367.570000, 0.000000)">
                    <path d="M91.2357126,0.31935 C101.639006,0.31935 107.158012,5.98278479 107.158012,16.2250889 L107.158012,16.2250889 L107.158012,91.4134518 C107.158012,101.655852 101.639006,107.31935 91.2357126,107.31935 L91.2357126,107.31935 L16.0855667,107.31935 C5.68768766,107.31935 0.163298901,101.800471 0.163298901,91.4134518 L0.163298901,91.4134518 L0.163298901,16.2250889 C0.163298901,5.8381973 5.68768766,0.31935 16.0855667,0.31935 L16.0855667,0.31935 Z M68.1836,33.7754 C66.5723,33.7754 65.4492,34.8496 65.4492,36.4609 L65.4492,36.4609 L65.4492,39.9766 L62.2266,39.9766 C58.418,39.9766 56.0254,41.0996 53.1934,44.2246 L53.1934,44.2246 L49.3848,48.668 L45.5273,44.2246 C42.7441,41.0996 40.3027,39.9766 36.543,39.9766 L36.543,39.9766 L31.8555,39.9766 C29.8535,39.9766 28.4375,41.3438 28.4375,43.1992 C28.4375,44.957 29.9023,46.4219 31.8555,46.4219 L31.8555,46.4219 L36.6406,46.4219 C38.252,46.4219 39.2773,46.9102 40.6934,48.6191 L40.6934,48.6191 L45.0879,53.7461 L40.6934,58.873 C39.2773,60.5332 38.3008,61.0703 36.6406,61.0703 L36.6406,61.0703 L31.8555,61.0703 C29.9023,61.0703 28.4375,62.4863 28.4375,64.293 C28.4375,66.1484 29.8535,67.5156 31.8555,67.5156 L31.8555,67.5156 L36.543,67.5156 C40.3027,67.5156 42.7441,66.3438 45.5273,63.2676 L45.5273,63.2676 L49.3848,58.8242 L53.1934,63.2676 C56.0254,66.3438 58.418,67.5156 62.2266,67.5156 L62.2266,67.5156 L65.4492,67.5156 L65.4492,71.1777 C65.4492,72.7891 66.5723,73.8633 68.1836,73.8633 C68.9648,73.8633 69.6484,73.668 70.1367,73.2285 L70.1367,73.2285 L77.8516,66.6855 C79.1699,65.5625 79.2676,63.7559 77.9004,62.6816 L77.9004,62.6816 L70.2832,56.1875 C69.7949,55.6504 69.0137,55.3086 68.1836,55.3086 C66.6211,55.3086 65.4492,56.4805 65.4492,58.1406 L65.4492,58.1406 L65.4492,61.0703 L62.4707,61.0703 C60.6152,61.0703 59.541,60.5332 58.1738,58.873 L58.1738,58.873 L53.7305,53.7461 L58.1738,48.6191 C59.5898,46.9102 60.6641,46.4219 62.4707,46.4219 L62.4707,46.4219 L65.4492,46.4219 L65.4492,49.498 C65.4492,51.1582 66.6211,52.3301 68.1836,52.3301 C69.0137,52.3301 69.7949,51.9883 70.2832,51.4512 L70.2832,51.4512 L77.8516,45.0547 C79.1211,43.9805 79.1699,42.125 77.998,41.002 L77.998,41.002 L70.1367,34.4102 C69.6484,33.9707 68.9648,33.7754 68.1836,33.7754 Z" id="Shape"></path>
                </g>
                <g id="Regular-S" transform="translate(888.580000, 5.000000)">
                    <path d="M83.2212476,0.3193 C92.6522703,0.3193 97.6554819,5.45344182 97.6554819,14.7385213 L97.6554819,14.7385213 L97.6554819,82.8999344 C97.6554819,92.1851004 92.6522703,97.3193 83.2212476,97.3193 L83.2212476,97.3193 L15.0944798,97.3193 C5.66836522,97.3193 0.660274471,92.316204 0.660274471,82.8999344 L0.660274471,82.8999344 L0.660274471,14.7385213 C0.660274471,5.32236718 5.66836522,0.3193 15.0944798,0.3193 L15.0944798,0.3193 Z M63.5957,29.3613 C62.2773,29.3613 61.4473,30.1914 61.4473,31.4609 L61.4473,31.4609 L61.4473,35.6113 L57.7852,35.6113 C54.123,35.6113 51.877,36.6367 49.1914,39.6641 L49.1914,39.6641 L44.8945,44.6934 L40.5977,39.6641 C37.9121,36.6367 35.666,35.6113 32.0527,35.6113 L32.0527,35.6113 L27.4141,35.6113 C25.7539,35.6113 24.582,36.6367 24.582,38.1992 C24.582,39.6641 25.8027,40.7871 27.4141,40.7871 L27.4141,40.7871 L32.1504,40.7871 C33.957,40.7871 35.1289,41.373 36.6914,43.2285 L36.6914,43.2285 L41.3789,48.7461 L36.6914,54.2637 C35.0801,56.168 33.957,56.7051 32.1504,56.7051 L32.1504,56.7051 L27.4141,56.7051 C25.8027,56.7051 24.582,57.8281 24.582,59.293 C24.582,60.8066 25.7539,61.8809 27.4141,61.8809 L27.4141,61.8809 L32.0527,61.8809 C35.666,61.8809 37.9121,60.8555 40.5977,57.8281 L40.5977,57.8281 L44.8945,52.7988 L49.1914,57.8281 C51.877,60.8555 54.123,61.8809 57.7852,61.8809 L57.7852,61.8809 L61.4473,61.8809 L61.4473,66.1777 C61.4473,67.4473 62.2773,68.2773 63.5957,68.2773 C64.2305,68.2773 64.7676,68.082 65.207,67.7402 L65.207,67.7402 L72.9219,61.1973 C73.9961,60.3672 73.9961,58.9512 72.9707,58.1211 L72.9707,58.1211 L65.2559,51.5781 C64.9141,51.1875 64.2793,50.9434 63.5957,50.9434 C62.3262,50.9434 61.4473,51.8223 61.4473,53.0918 L61.4473,53.0918 L61.4473,56.7051 L57.9316,56.7051 C55.9297,56.7051 54.6602,56.1191 53.1465,54.2637 L53.1465,54.2637 L48.3613,48.7461 L53.1465,43.2285 C54.6602,41.373 55.9297,40.7871 57.9316,40.7871 L57.9316,40.7871 L61.4473,40.7871 L61.4473,44.5469 C61.4473,45.8164 62.3262,46.6465 63.5957,46.6465 C64.2793,46.6465 64.9141,46.4512 65.2559,46.0605 L65.2559,46.0605 L72.9219,39.6152 C73.9473,38.7852 73.9961,37.3203 72.9707,36.4902 L72.9707,36.4902 L65.207,29.8984 C64.7676,29.5566 64.2305,29.3613 63.5957,29.3613 Z" id="Shape"></path>
                </g>
                <g id="Ultralight-S" transform="translate(0.649000, 7.000000)">
                    <path d="M79.4414292,0.52395 C88.4349303,0.52395 93.2060341,5.41990999 93.2060341,14.2742383 L93.2060341,14.2742383 L93.2060341,79.273524 C93.2060341,88.127935 88.4349303,93.02395 79.4414292,93.02395 L79.4414292,93.02395 L14.4751816,93.02395 C5.48636095,93.02395 0.710604313,88.2529563 0.710604313,79.273524 L0.710604313,79.273524 L0.710604313,14.2742383 C0.710604313,5.29491612 5.48636095,0.52395 14.4751816,0.52395 L14.4751816,0.52395 Z M60.1446,28.542 C59.6436,28.542 59.2676,28.918 59.2676,29.5972 L59.2676,29.5972 L59.2676,35.0644 L55.7871,35.0644 C52.5791,35.0644 50.6963,35.999 48.374,38.7993 L48.374,38.7993 L43.0781,45.1001 L37.7822,38.7993 C35.4146,35.999 33.5318,35.0644 30.3272,35.0644 L30.3272,35.0644 L25.4614,35.0644 C24.8457,35.0644 24.4004,35.4995 24.4004,36.1538 C24.4004,36.7559 24.8945,37.2432 25.4614,37.2432 L25.4614,37.2432 L30.334,37.2432 C32.8218,37.2432 34.4478,38.1016 36.4644,40.5928 L36.4644,40.5928 L41.6514,46.7461 L36.4644,52.9448 C34.4443,55.4394 32.8218,56.2944 30.334,56.2944 L30.334,56.2944 L25.4614,56.2944 C24.8945,56.2944 24.4004,56.7817 24.4004,57.3838 C24.4004,58.0347 24.8457,58.4732 25.4614,58.4732 L25.4614,58.4732 L30.3272,58.4732 C33.5318,58.4732 35.4146,57.5386 37.7822,54.7383 L37.7822,54.7383 L43.0781,48.4375 L48.374,54.7383 C50.6963,57.5386 52.5791,58.4732 55.7871,58.4732 L55.7871,58.4732 L59.2676,58.4732 L59.2676,63.9507 C59.2676,64.6299 59.6436,65.0059 60.1446,65.0059 C60.4615,65.0059 60.7715,64.9014 61.0747,64.6504 L61.0747,64.6504 L69.0166,58.6523 C69.6822,58.1401 69.6822,57.0874 69.0201,56.5752 L69.0201,56.5752 L61.0782,50.5317 C60.7818,50.3227 60.4649,50.2148 60.1446,50.2148 C59.647,50.2148 59.2676,50.5942 59.2676,51.2734 L59.2676,51.2734 L59.2676,56.2944 L55.7974,56.2944 C53.0689,56.2944 51.7085,55.436 49.6499,52.9448 L49.6499,52.9448 L44.4561,46.7461 L49.6499,40.5928 C51.7085,38.1016 53.0689,37.2432 55.7974,37.2432 L55.7974,37.2432 L59.2676,37.2432 L59.2676,42.2744 C59.2676,42.9536 59.647,43.3296 60.1446,43.3296 C60.4649,43.3296 60.7818,43.2251 61.0782,42.9707 L61.0782,42.9707 L69.0166,36.9795 C69.6787,36.4673 69.6822,35.4111 69.0201,34.8989 L69.0201,34.8989 L61.0747,28.852 C60.7715,28.6465 60.4615,28.542 60.1446,28.542 Z" id="Shape"></path>
                </g>
            </g>
        </g>
    </g>
</svg>