<?xml version="1.0" encoding="UTF-8"?>
<svg width="3300px" height="2200px" viewBox="0 0 3300 2200" version="1.1" xmlns="http://www.w3.org/2000/svg" xmlns:xlink="http://www.w3.org/1999/xlink">
    <!-- Generator: Sketch 59.1 (86144) - https://sketch.com -->
    <title>infinity.square.fill</title>
    <desc>Created with Sketch.</desc>
    <g id="Page-1" stroke="none" stroke-width="1" fill="none" fill-rule="evenodd">
        <g id="infinity.square.fill">
            <g id="Notes">
                <rect id="artboard" fill="#FFFFFF" fill-rule="nonzero" x="0" y="0" width="3300" height="2200"></rect>
                <line x1="263" y1="292" x2="3036" y2="292" id="Path" stroke="#000000" stroke-width="0.5"></line>
                <text id="Weight/Scale-Variations" fill="#000000" font-family="Helvetica" font-size="13" font-weight="normal">
                    <tspan x="263" y="322">Weight/Scale Variations</tspan>
                </text>
                <text id="Ultralight" fill="#000000" font-family="Helvetica" font-size="13" font-weight="normal">
                    <tspan x="533.711" y="322">Ultralight</tspan>
                </text>
                <text id="Thin" fill="#000000" font-family="Helvetica" font-size="13" font-weight="normal">
                    <tspan x="843.422" y="322">Thin</tspan>
                </text>
                <text id="Light" fill="#000000" font-family="Helvetica" font-size="13" font-weight="normal">
                    <tspan x="1138.63" y="322">Light</tspan>
                </text>
                <text id="Regular" fill="#000000" font-family="Helvetica" font-size="13" font-weight="normal">
                    <tspan x="1426.84" y="322">Regular</tspan>
                </text>
                <text id="Medium" fill="#000000" font-family="Helvetica" font-size="13" font-weight="normal">
                    <tspan x="1723.06" y="322">Medium</tspan>
                </text>
                <text id="Semibold" fill="#000000" font-family="Helvetica" font-size="13" font-weight="normal">
                    <tspan x="2015.77" y="322">Semibold</tspan>
                </text>
                <text id="Bold" fill="#000000" font-family="Helvetica" font-size="13" font-weight="normal">
                    <tspan x="2326.48" y="322">Bold</tspan>
                </text>
                <text id="Heavy" fill="#000000" font-family="Helvetica" font-size="13" font-weight="normal">
                    <tspan x="2618.19" y="322">Heavy</tspan>
                </text>
                <text id="Black" fill="#000000" font-family="Helvetica" font-size="13" font-weight="normal">
                    <tspan x="2917.4" y="322">Black</tspan>
                </text>
                <line x1="263" y1="1903" x2="3036" y2="1903" id="Path" stroke="#000000" stroke-width="0.5"></line>
                <g id="Group" transform="translate(264.000000, 1918.000000)" fill="#000000" fill-rule="nonzero">
                    <path d="M8.24805,15.830078 C12.5547,15.830078 16.1387,12.25586 16.1387,7.94922 C16.1387,3.6426 12.5449,0.0684 8.23828,0.0684 C3.94141,0.0684 0.36719,3.6426 0.36719,7.94922 C0.36719,12.25586 3.95117,15.830078 8.24805,15.830078 Z M8.24805,14.345703 C4.70312,14.345703 1.87109,11.50391 1.87109,7.94922 C1.87109,4.3945 4.69336,1.5527 8.23828,1.5527 C11.793,1.5527 14.6445,4.3945 14.6445,7.94922 C14.6445,11.50391 11.8027,14.345703 8.24805,14.345703 Z M4.6543,7.94922 C4.6543,8.37891 4.95703,8.67188 5.40625,8.67188 L7.50586,8.67188 L7.50586,10.79102 C7.50586,11.23047 7.79883,11.5332 8.22852,11.5332 C8.67773,11.5332 8.9707,11.23047 8.9707,10.79102 L8.9707,8.67188 L11.0898,8.67188 C11.5293,8.67188 11.832,8.37891 11.832,7.94922 C11.832,7.50977 11.5293,7.20703 11.0898,7.20703 L8.9707,7.20703 L8.9707,5.09766 C8.9707,4.6484 8.67773,4.3457 8.22852,4.3457 C7.79883,4.3457 7.50586,4.6484 7.50586,5.09766 L7.50586,7.20703 L5.40625,7.20703 C4.95703,7.20703 4.6543,7.50977 4.6543,7.94922 Z" id="Shape"></path>
                </g>
                <g id="Group" transform="translate(282.867000, 1915.000000)" fill="#000000" fill-rule="nonzero">
                    <path d="M10.709,20.91016 C16.1582,20.91016 20.6699,16.38867 20.6699,10.94922 C20.6699,5.5 16.1484,0.9883 10.6992,0.9883 C5.25977,0.9883 0.74805,5.5 0.74805,10.94922 C0.74805,16.38867 5.26953,20.91016 10.709,20.91016 Z M10.709,19.25 C6.09961,19.25 2.41797,15.55859 2.41797,10.94922 C2.41797,6.3398 6.08984,2.6484 10.6992,2.6484 C15.3086,2.6484 19.0098,6.3398 19.0098,10.94922 C19.0098,15.55859 15.3184,19.25 10.709,19.25 Z M6.17773,10.94922 C6.17773,11.42773 6.50977,11.75 7.00781,11.75 L9.8789,11.75 L9.8789,14.63086 C9.8789,15.11914 10.2109,15.46094 10.6895,15.46094 C11.1777,15.46094 11.5195,15.12891 11.5195,14.63086 L11.5195,11.75 L14.4004,11.75 C14.8887,11.75 15.2305,11.42773 15.2305,10.94922 C15.2305,10.46094 14.8887,10.11914 14.4004,10.11914 L11.5195,10.11914 L11.5195,7.248 C11.5195,6.75 11.1777,6.4082 10.6895,6.4082 C10.2109,6.4082 9.8789,6.75 9.8789,7.248 L9.8789,10.11914 L7.00781,10.11914 C6.50977,10.11914 6.17773,10.46094 6.17773,10.94922 Z" id="Shape"></path>
                </g>
                <g id="Group" transform="translate(307.646000, 1913.000000)" fill="#000000" fill-rule="nonzero">
                    <path d="M12.9707,25.66406 C19.9336,25.66406 25.6953,19.9023438 25.6953,12.94922 C25.6953,5.9863 19.9238,0.2246 12.9609,0.2246 C6.00781,0.2246 0.25586,5.9863 0.25586,12.94922 C0.25586,19.9023438 6.01758,25.66406 12.9707,25.66406 Z M12.9707,23.84766 C6.93555,23.84766 2.08203,18.98438 2.08203,12.94922 C2.08203,6.9043 6.92578,2.0508 12.9609,2.0508 C19.0059,2.0508 23.8691,6.9043 23.8691,12.94922 C23.8691,18.98438 19.0156,23.84766 12.9707,23.84766 Z M7.19922,12.94922 C7.19922,13.4668 7.57031,13.82812 8.1172,13.82812 L12.0625,13.82812 L12.0625,17.7832 C12.0625,18.32031 12.4336,18.70117 12.9512,18.70117 C13.4883,18.70117 13.8594,18.33008 13.8594,17.7832 L13.8594,13.82812 L17.8145,13.82812 C18.3516,13.82812 18.7324,13.4668 18.7324,12.94922 C18.7324,12.40234 18.3613,12.03125 17.8145,12.03125 L13.8594,12.03125 L13.8594,8.0859 C13.8594,7.5391 13.4883,7.1582 12.9512,7.1582 C12.4336,7.1582 12.0625,7.5391 12.0625,8.0859 L12.0625,12.03125 L8.1172,12.03125 C7.57031,12.03125 7.19922,12.40234 7.19922,12.94922 Z" id="Shape"></path>
                </g>
                <text id="Design-Variations" fill="#000000" font-family="Helvetica" font-size="13" font-weight="normal">
                    <tspan x="263" y="1953">Design Variations</tspan>
                </text>
                <text id="Symbols-are-supported-in-up-to-nine-weights-and-three-scales." fill="#000000" font-family="Helvetica" font-size="13" font-weight="normal">
                    <tspan x="263" y="1971">Symbols are supported in up to nine weights and three scales.</tspan>
                </text>
                <text id="For-optimal-layout-with-text-and-other-symbols,-vertically-align" fill="#000000" font-family="Helvetica" font-size="13" font-weight="normal">
                    <tspan x="263" y="1989">For optimal layout with text and other symbols, vertically align</tspan>
                </text>
                <text id="symbols-with-the-adjacent-text." fill="#000000" font-family="Helvetica" font-size="13" font-weight="normal">
                    <tspan x="263" y="2007">symbols with the adjacent text.</tspan>
                </text>
                <line x1="776" y1="1919" x2="776" y2="1933" id="Path" stroke="#00AEEF" stroke-width="0.5"></line>
                <g id="Group" transform="translate(778.000000, 1918.000000)" fill="#000000" fill-rule="nonzero">
                    <path d="M1.31055,15.15625 C1.82812,15.15625 2.08203,14.9609375 2.26758,14.414062 L3.52734,10.9668 L9.2891,10.9668 L10.5488,14.414062 C10.7344,14.9609375 10.9883,15.15625 11.4961,15.15625 C12.0137,15.15625 12.3457,14.84375 12.3457,14.355469 C12.3457,14.189453 12.3164,14.033203 12.2383,13.82812 L7.6582,1.6309 C7.43359,1.0352 7.0332,0.7324 6.4082,0.7324 C5.80273,0.7324 5.39258,1.0254 5.17773,1.6211 L0.59766,13.83789 C0.51953,14.042969 0.49023,14.199219 0.49023,14.365234 C0.49023,14.853516 0.80273,15.15625 1.31055,15.15625 Z M4.00586,9.48242 L6.37891,2.9102 L6.42773,2.9102 L8.8008,9.48242 L4.00586,9.48242 Z" id="Shape"></path>
                </g>
                <line x1="793.197" y1="1919" x2="793.197" y2="1933" id="Path" stroke="#00AEEF" stroke-width="0.5"></line>
                <text id="Margins" fill="#000000" font-family="Helvetica" font-size="13" font-weight="normal">
                    <tspan x="776" y="1953">Margins</tspan>
                </text>
                <text id="Leading-and-trailing-margins-on-the-left-and-right-side-of-each-symbol" fill="#000000" font-family="Helvetica" font-size="13" font-weight="normal">
                    <tspan x="776" y="1971">Leading and trailing margins on the left and right side of each symbol</tspan>
                </text>
                <text id="can-be-adjusted-by-modifying-the-x-location-of-the-margin-guidelines." fill="#000000" font-family="Helvetica" font-size="13" font-weight="normal">
                    <tspan x="776" y="1989">can be adjusted by modifying the x-location of the margin guidelines.</tspan>
                </text>
                <text id="Modifications-are-automatically-applied-proportionally-to-all" fill="#000000" font-family="Helvetica" font-size="13" font-weight="normal">
                    <tspan x="776" y="2007">Modifications are automatically applied proportionally to all</tspan>
                </text>
                <text id="scales-and-weights." fill="#000000" font-family="Helvetica" font-size="13" font-weight="normal">
                    <tspan x="776" y="2025">scales and weights.</tspan>
                </text>
                <g id="Group" transform="translate(1291.000000, 1914.000000)" fill="#000000" fill-rule="nonzero">
                    <path d="M0.8418,20.86523 L2.54102,22.57422 C3.40039,23.44336 4.38672,23.38477 5.31445,22.35938 L16.0078,10.57227 L15.041,9.5957 L4.42578,21.27539 C4.07422,21.67578 3.74219,21.77344 3.27344,21.30469 L2.10156,20.14258 C1.63281,19.683594 1.74023,19.341797 2.14062,18.9804688 L13.6152,8.1797 L12.6387,7.2129 L1.04688,18.101562 C0.06055,19.0195312 -0.01758,19.996094 0.8418,20.86523 Z M7.25781,2.6719 C6.83789,3.082 6.80859,3.6582 7.04297,4.0488 C7.27734,4.4102 7.73633,4.6445 8.3809,4.4785 C9.8457,4.1367 11.3691,4.0781 12.7949,5.0156 L12.209,6.4707 C11.8672,7.3008 12.043,7.8867 12.5801,8.4336 L14.875,10.74805 C15.3633,11.23633 15.7734,11.25586 16.3398,11.1582 L17.4043,10.96289 L18.0684,11.63672 L18.0293,12.19336 C17.9902,12.69141 18.1172,13.07227 18.6055,13.55078 L19.3672,14.29297 C19.8457,14.77148 20.4609,14.80078 20.9297,14.33203 L23.8398,11.41211 C24.3086,10.94336 24.2891,10.34766 23.8105,9.86914 L23.0391,9.10742 C22.5605,8.6289 22.1895,8.4727 21.7109,8.5117 L21.1348,8.5605 L20.4902,7.9258 L20.7344,6.8027 C20.8613,6.2363 20.7051,5.7969 20.1191,5.2109 L17.9219,3.0234 C14.582,-0.2969 10.1484,-0.2188 7.25781,2.6719 Z M8.752,3.043 C11.1836,1.2656 14.4746,1.5684 16.7012,3.7949 L19.1328,6.207 C19.3672,6.4414 19.4062,6.627 19.3379,6.9688 L19.0156,8.4531 L20.5195,9.9375 L21.5059,9.87891 C21.7598,9.86914 21.8379,9.88867 22.0332,10.08398 L22.6094,10.66016 L20.168,13.10156 L19.5918,12.52539 C19.3965,12.33008 19.3672,12.25195 19.377,11.98828 L19.4453,11.01172 L17.9512,9.52734 L16.4277,9.78125 C16.1055,9.84961 15.959,9.82031 15.7148,9.58594 L13.7129,7.584 C13.459,7.3496 13.4297,7.1836 13.5859,6.8125 L14.4648,4.7227 C12.9023,3.2676 10.8711,2.6426 8.8398,3.2383 C8.6836,3.2773 8.625,3.1504 8.752,3.043 Z" id="Shape"></path>
                </g>
                <text id="Exporting" fill="#000000" font-family="Helvetica" font-size="13" font-weight="normal">
                    <tspan x="1289" y="1953">Exporting</tspan>
                </text>
                <text id="Symbols-should-be-outlined-when-exporting-to-ensure-the" fill="#000000" font-family="Helvetica" font-size="13" font-weight="normal">
                    <tspan x="1289" y="1971">Symbols should be outlined when exporting to ensure the</tspan>
                </text>
                <text id="design-is-preserved-when-submitting-to-Xcode." fill="#000000" font-family="Helvetica" font-size="13" font-weight="normal">
                    <tspan x="1289" y="1989">design is preserved when submitting to Xcode.</tspan>
                </text>
                <text id="template-version" fill="#000000" font-family="Helvetica" font-size="13" font-weight="normal">
                    <tspan x="2952" y="1933">Template v.4.0</tspan>
                </text>
                <text id="Requires-Xcode-14-or-greater" fill="#000000" font-family="Helvetica" font-size="13" font-weight="normal">
                    <tspan x="2865" y="1951">Requires Xcode 14 or greater</tspan>
                </text>
                <text id="descriptive-name" fill="#000000" font-family="Helvetica" font-size="13" font-weight="normal">
                    <tspan x="2855" y="1969">Generated from infinity.circle.fill</tspan>
                </text>
                <text id="Typeset-at-100-points" fill="#000000" font-family="Helvetica" font-size="13" font-weight="normal">
                    <tspan x="2912" y="1987">Typeset at 100 points</tspan>
                </text>
                <text id="Small" fill="#000000" font-family="Helvetica" font-size="13" font-weight="normal">
                    <tspan x="263" y="726">Small</tspan>
                </text>
                <text id="Medium" fill="#000000" font-family="Helvetica" font-size="13" font-weight="normal">
                    <tspan x="263" y="1156">Medium</tspan>
                </text>
                <text id="Large" fill="#000000" font-family="Helvetica" font-size="13" font-weight="normal">
                    <tspan x="263" y="1586">Large</tspan>
                </text>
            </g>
            <g id="Guides" transform="translate(263.000000, 600.000000)">
                <g id="H-reference" transform="translate(76.000000, 25.000000)" fill="#27AAE1" fill-rule="nonzero">
                    <path d="M0.993654,71 L3.63775,71 L29.3281,3.8677 L30.0303,3.8677 L30.0303,0.541 L28.1226,0.541 L0.993654,71 Z M11.6885,46.5201 L46.9815,46.5201 L46.2315,44.2715 L12.4385,44.2715 L11.6885,46.5201 Z M55.1196,71 L57.7637,71 L30.6382,0.541 L29.4326,0.541 L29.4326,3.8677 L55.1196,71 Z" id="Shape"></path>
                </g>
                <line x1="0" y1="96" x2="2773" y2="96" id="Baseline-S" stroke="#27AAE1" stroke-width="0.5"></line>
                <line x1="0" y1="25.541" x2="2773" y2="25.541" id="Capline-S" stroke="#27AAE1" stroke-width="0.5"></line>
                <g id="H-reference" transform="translate(76.000000, 455.000000)" fill="#27AAE1" fill-rule="nonzero">
                    <path d="M0.993654,71 L3.63775,71 L29.3281,3.8677 L30.0303,3.8677 L30.0303,0.541 L28.1226,0.541 L0.993654,71 Z M11.6885,46.5201 L46.9815,46.5201 L46.2315,44.2715 L12.4385,44.2715 L11.6885,46.5201 Z M55.1196,71 L57.7637,71 L30.6382,0.541 L29.4326,0.541 L29.4326,3.8677 L55.1196,71 Z" id="Shape"></path>
                </g>
                <line x1="0" y1="526" x2="2773" y2="526" id="Baseline-M" stroke="#27AAE1" stroke-width="0.5"></line>
                <line x1="0" y1="455.54" x2="2773" y2="455.54" id="Capline-M" stroke="#27AAE1" stroke-width="0.5"></line>
                <g id="H-reference" transform="translate(76.000000, 885.000000)" fill="#27AAE1" fill-rule="nonzero">
                    <path d="M0.993654,71 L3.63775,71 L29.3281,3.8677 L30.0303,3.8677 L30.0303,0.541 L28.1226,0.541 L0.993654,71 Z M11.6885,46.5201 L46.9815,46.5201 L46.2315,44.2715 L12.4385,44.2715 L11.6885,46.5201 Z M55.1196,71 L57.7637,71 L30.6382,0.541 L29.4326,0.541 L29.4326,3.8677 L55.1196,71 Z" id="Shape"></path>
                </g>
                <line x1="0" y1="956" x2="2773" y2="956" id="Baseline-L" stroke="#27AAE1" stroke-width="0.5"></line>
                <line x1="0" y1="885.54" x2="2773" y2="885.54" id="Capline-L" stroke="#27AAE1" stroke-width="0.5"></line>
                <line x1="252.649" y1="0.785" x2="252.649" y2="120.121" id="left-margin-Ultralight-S" stroke="#00AEEF" stroke-width="0.5"></line>
                <line x1="340.773" y1="0.785" x2="340.773" y2="120.121" id="right-margin-Ultralight-S" stroke="#00AEEF" stroke-width="0.5"></line>
                <line x1="1140.58" y1="0.785" x2="1140.58" y2="120.121" id="left-margin-Regular-S" stroke="#00AEEF" stroke-width="0.5"></line>
                <line x1="1233.11" y1="0.785" x2="1233.11" y2="120.121" id="right-margin-Regular-S" stroke="#00AEEF" stroke-width="0.5"></line>
                <line x1="2621.57" y1="0.785" x2="2621.57" y2="120.121" id="left-margin-Black-S" stroke="#00AEEF" stroke-width="0.5"></line>
                <line x1="2719.23" y1="0.785" x2="2719.23" y2="120.121" id="right-margin-Black-S" stroke="#00AEEF" stroke-width="0.5"></line>
            </g>
            <g id="Symbols" transform="translate(512.000000, 607.000000)" fill="#000000" fill-rule="nonzero">
                <g id="Black-S" transform="translate(2367.570000, 0.000000)">
                    <path d="M16.3018611,107.2461 L91.452007,107.2461 C101.8553,107.2461 107.374307,101.582602 107.374307,91.3402018 L107.374307,16.1518389 C107.374307,5.90953479 101.8553,0.2461 91.452007,0.2461 L16.3018611,0.2461 C5.9039821,0.2461 0.37959334,5.7649473 0.37959334,16.1518389 L0.37959334,91.3402018 C0.37959334,101.727221 5.9039821,107.2461 16.3018611,107.2461 Z M27.1191,53.7461 C27.1191,45.7383 32.2949,40.2207 39.8633,40.2207 C43.6719,40.2207 47.041,41.832 50.5566,45.2012 L53.877,48.4238 L57.1973,45.2012 C60.7129,41.832 64.082,40.2207 67.8906,40.2207 C75.459,40.2207 80.6348,45.7383 80.6348,53.7461 C80.6348,61.7539 75.459,67.2715 67.8906,67.2715 C64.082,67.2715 60.7129,65.6602 57.1973,62.291 L53.877,59.0684 L50.5566,62.291 C47.041,65.6602 43.6719,67.2715 39.8633,67.2715 C32.2949,67.2715 27.1191,61.7539 27.1191,53.7461 Z M34.8828,53.7461 C34.8828,57.3594 36.6895,59.459 39.8633,59.459 C41.5234,59.459 43.1836,58.7266 45.2344,56.7246 L48.3105,53.7461 L45.2344,50.7676 C43.1836,48.7656 41.5234,48.0332 39.8633,48.0332 C36.6895,48.0332 34.8828,50.1328 34.8828,53.7461 Z M59.4434,53.7461 L62.5195,56.7246 C64.5703,58.7266 66.2305,59.459 67.8906,59.459 C71.0645,59.459 72.8711,57.3594 72.8711,53.7461 C72.8711,50.1328 71.0645,48.0332 67.8906,48.0332 C66.2305,48.0332 64.5703,48.7656 62.5195,50.7676 L59.4434,53.7461 Z" id="Shape"></path>
                </g>
                <g id="Regular-S" transform="translate(888.580000, 5.000000)">
                    <path d="M15.2501017,97.2461 L83.3768695,97.2461 C92.8078922,97.2461 97.8111037,92.1119004 97.8111037,82.8267344 L97.8111037,14.6653213 C97.8111037,5.38024182 92.8078922,0.2461 83.3768695,0.2461 L15.2501017,0.2461 C5.82398704,0.2461 0.815896299,5.24916718 0.815896299,14.6653213 L0.815896299,82.8267344 C0.815896299,92.243004 5.82398704,97.2461 15.2501017,97.2461 Z M22.3848,48.7461 C22.3848,41.0312 27.2188,35.8555 34.4941,35.8555 C38.2539,35.8555 41.5254,37.418 44.9434,40.7383 L49.2891,44.9375 L53.6836,40.7383 C57.1016,37.3691 60.373,35.8555 64.1328,35.8555 C71.4082,35.8555 76.2422,41.0312 76.2422,48.7461 C76.2422,56.4609 71.4082,61.6367 64.1328,61.6367 C60.4219,61.6367 57.1504,60.123 53.6836,56.7539 L49.2891,52.5547 L44.9434,56.7539 C41.4766,60.0742 38.2051,61.6367 34.4941,61.6367 C27.2188,61.6367 22.3848,56.4609 22.3848,48.7461 Z M27.8535,48.7461 C27.8535,53.2871 30.4414,56.168 34.4941,56.168 C36.6426,56.168 38.5469,55.1426 41.0371,52.75 L45.334,48.7461 L41.0371,44.7422 C38.5469,42.3496 36.5938,41.3242 34.4941,41.3242 C30.4414,41.3242 27.8535,44.2051 27.8535,48.7461 Z M53.2441,48.7461 L57.5898,52.75 C60.0801,55.1426 61.9844,56.168 64.1328,56.168 C68.1367,56.168 70.7246,53.2871 70.7246,48.7461 C70.7246,44.2051 68.1367,41.3242 64.1328,41.3242 C61.9844,41.3242 60.0801,42.3496 57.5898,44.7422 L53.2441,48.7461 Z" id="Shape"></path>
                </g>
                <g id="Ultralight-S" transform="translate(0.649000, 7.000000)">
                    <path d="M14.6506624,92.9507 L79.6169101,92.9507 C88.6104111,92.9507 93.3815149,88.054685 93.3815149,79.200274 L93.3815149,14.2009883 C93.3815149,5.34665999 88.6104111,0.4507 79.6169101,0.4507 L14.6506624,0.4507 C5.66184177,0.4507 0.88608513,5.22166612 0.88608513,14.2009883 L0.88608513,79.200274 C0.88608513,88.1797063 5.66184177,92.9507 14.6506624,92.9507 Z M21.9761,46.7461 C21.9761,40.3935 26.3106,35.8535 32.4053,35.8535 C36.0742,35.8989 38.8916,37.7793 42.2642,40.8725 L47.1094,45.3442 L51.9126,40.8725 C55.6939,37.3218 58.375,35.8535 61.7715,35.8535 C67.8662,35.8535 72.2915,40.3935 72.2915,46.7461 C72.2915,53.0986 67.8662,57.5479 61.7715,57.5479 C58.333,57.5479 55.6519,56.125 51.9126,52.6196 L47.1094,48.148 L42.2642,52.6196 C38.8882,55.7129 36.0708,57.5479 32.4053,57.5479 C26.3106,57.5479 21.9761,53.0986 21.9761,46.7461 Z M24.0845,46.7461 C24.0845,51.832 27.5352,55.4394 32.4053,55.4394 C35.3711,55.4394 37.6387,53.9145 40.7647,51.1133 L45.6064,46.7461 L40.7647,42.3335 C37.2754,39.169 35.0952,38.0073 32.4053,37.9619 C27.5352,37.9619 24.0845,41.6602 24.0845,46.7461 Z M48.5669,46.7461 L53.4121,51.1133 C56.5381,53.9145 58.7603,55.4394 61.7715,55.4394 C66.6836,55.4394 70.1797,51.7866 70.1797,46.7461 C70.1797,41.6602 66.6382,37.9619 61.7715,37.9619 C59.0781,38.0073 56.856,39.169 53.4121,42.3335 L48.5669,46.7461 Z" id="Shape"></path>
                </g>
            </g>
        </g>
    </g>
</svg>