<?xml version="1.0" encoding="UTF-8"?>
<svg width="3300px" height="2200px" viewBox="0 0 3300 2200" version="1.1" xmlns="http://www.w3.org/2000/svg" xmlns:xlink="http://www.w3.org/1999/xlink">
    <!-- Generator: Sketch 59.1 (86144) - https://sketch.com -->
    <title>repeat.square.fill</title>
    <desc>Created with Sketch.</desc>
    <g id="Page-1" stroke="none" stroke-width="1" fill="none" fill-rule="evenodd">
        <g id="repeat.square.fill">
            <g id="Notes">
                <rect id="artboard" fill="#FFFFFF" fill-rule="nonzero" x="0" y="0" width="3300" height="2200"></rect>
                <line x1="263" y1="292" x2="3036" y2="292" id="Path" stroke="#000000" stroke-width="0.5"></line>
                <text id="Weight/Scale-Variations" fill="#000000" font-family="Helvetica" font-size="13" font-weight="normal">
                    <tspan x="263" y="322">Weight/Scale Variations</tspan>
                </text>
                <text id="Ultralight" fill="#000000" font-family="Helvetica" font-size="13" font-weight="normal">
                    <tspan x="533.711" y="322">Ultralight</tspan>
                </text>
                <text id="Thin" fill="#000000" font-family="Helvetica" font-size="13" font-weight="normal">
                    <tspan x="843.422" y="322">Thin</tspan>
                </text>
                <text id="Light" fill="#000000" font-family="Helvetica" font-size="13" font-weight="normal">
                    <tspan x="1138.63" y="322">Light</tspan>
                </text>
                <text id="Regular" fill="#000000" font-family="Helvetica" font-size="13" font-weight="normal">
                    <tspan x="1426.84" y="322">Regular</tspan>
                </text>
                <text id="Medium" fill="#000000" font-family="Helvetica" font-size="13" font-weight="normal">
                    <tspan x="1723.06" y="322">Medium</tspan>
                </text>
                <text id="Semibold" fill="#000000" font-family="Helvetica" font-size="13" font-weight="normal">
                    <tspan x="2015.77" y="322">Semibold</tspan>
                </text>
                <text id="Bold" fill="#000000" font-family="Helvetica" font-size="13" font-weight="normal">
                    <tspan x="2326.48" y="322">Bold</tspan>
                </text>
                <text id="Heavy" fill="#000000" font-family="Helvetica" font-size="13" font-weight="normal">
                    <tspan x="2618.19" y="322">Heavy</tspan>
                </text>
                <text id="Black" fill="#000000" font-family="Helvetica" font-size="13" font-weight="normal">
                    <tspan x="2917.4" y="322">Black</tspan>
                </text>
                <line x1="263" y1="1903" x2="3036" y2="1903" id="Path" stroke="#000000" stroke-width="0.5"></line>
                <g id="Group" transform="translate(264.000000, 1918.000000)" fill="#000000" fill-rule="nonzero">
                    <path d="M8.24805,15.830078 C12.5547,15.830078 16.1387,12.25586 16.1387,7.94922 C16.1387,3.6426 12.5449,0.0684 8.23828,0.0684 C3.94141,0.0684 0.36719,3.6426 0.36719,7.94922 C0.36719,12.25586 3.95117,15.830078 8.24805,15.830078 Z M8.24805,14.345703 C4.70312,14.345703 1.87109,11.50391 1.87109,7.94922 C1.87109,4.3945 4.69336,1.5527 8.23828,1.5527 C11.793,1.5527 14.6445,4.3945 14.6445,7.94922 C14.6445,11.50391 11.8027,14.345703 8.24805,14.345703 Z M4.6543,7.94922 C4.6543,8.37891 4.95703,8.67188 5.40625,8.67188 L7.50586,8.67188 L7.50586,10.79102 C7.50586,11.23047 7.79883,11.5332 8.22852,11.5332 C8.67773,11.5332 8.9707,11.23047 8.9707,10.79102 L8.9707,8.67188 L11.0898,8.67188 C11.5293,8.67188 11.832,8.37891 11.832,7.94922 C11.832,7.50977 11.5293,7.20703 11.0898,7.20703 L8.9707,7.20703 L8.9707,5.09766 C8.9707,4.6484 8.67773,4.3457 8.22852,4.3457 C7.79883,4.3457 7.50586,4.6484 7.50586,5.09766 L7.50586,7.20703 L5.40625,7.20703 C4.95703,7.20703 4.6543,7.50977 4.6543,7.94922 Z" id="Shape"></path>
                </g>
                <g id="Group" transform="translate(282.867000, 1915.000000)" fill="#000000" fill-rule="nonzero">
                    <path d="M10.709,20.91016 C16.1582,20.91016 20.6699,16.38867 20.6699,10.94922 C20.6699,5.5 16.1484,0.9883 10.6992,0.9883 C5.25977,0.9883 0.74805,5.5 0.74805,10.94922 C0.74805,16.38867 5.26953,20.91016 10.709,20.91016 Z M10.709,19.25 C6.09961,19.25 2.41797,15.55859 2.41797,10.94922 C2.41797,6.3398 6.08984,2.6484 10.6992,2.6484 C15.3086,2.6484 19.0098,6.3398 19.0098,10.94922 C19.0098,15.55859 15.3184,19.25 10.709,19.25 Z M6.17773,10.94922 C6.17773,11.42773 6.50977,11.75 7.00781,11.75 L9.8789,11.75 L9.8789,14.63086 C9.8789,15.11914 10.2109,15.46094 10.6895,15.46094 C11.1777,15.46094 11.5195,15.12891 11.5195,14.63086 L11.5195,11.75 L14.4004,11.75 C14.8887,11.75 15.2305,11.42773 15.2305,10.94922 C15.2305,10.46094 14.8887,10.11914 14.4004,10.11914 L11.5195,10.11914 L11.5195,7.248 C11.5195,6.75 11.1777,6.4082 10.6895,6.4082 C10.2109,6.4082 9.8789,6.75 9.8789,7.248 L9.8789,10.11914 L7.00781,10.11914 C6.50977,10.11914 6.17773,10.46094 6.17773,10.94922 Z" id="Shape"></path>
                </g>
                <g id="Group" transform="translate(307.646000, 1913.000000)" fill="#000000" fill-rule="nonzero">
                    <path d="M12.9707,25.66406 C19.9336,25.66406 25.6953,19.9023438 25.6953,12.94922 C25.6953,5.9863 19.9238,0.2246 12.9609,0.2246 C6.00781,0.2246 0.25586,5.9863 0.25586,12.94922 C0.25586,19.9023438 6.01758,25.66406 12.9707,25.66406 Z M12.9707,23.84766 C6.93555,23.84766 2.08203,18.98438 2.08203,12.94922 C2.08203,6.9043 6.92578,2.0508 12.9609,2.0508 C19.0059,2.0508 23.8691,6.9043 23.8691,12.94922 C23.8691,18.98438 19.0156,23.84766 12.9707,23.84766 Z M7.19922,12.94922 C7.19922,13.4668 7.57031,13.82812 8.1172,13.82812 L12.0625,13.82812 L12.0625,17.7832 C12.0625,18.32031 12.4336,18.70117 12.9512,18.70117 C13.4883,18.70117 13.8594,18.33008 13.8594,17.7832 L13.8594,13.82812 L17.8145,13.82812 C18.3516,13.82812 18.7324,13.4668 18.7324,12.94922 C18.7324,12.40234 18.3613,12.03125 17.8145,12.03125 L13.8594,12.03125 L13.8594,8.0859 C13.8594,7.5391 13.4883,7.1582 12.9512,7.1582 C12.4336,7.1582 12.0625,7.5391 12.0625,8.0859 L12.0625,12.03125 L8.1172,12.03125 C7.57031,12.03125 7.19922,12.40234 7.19922,12.94922 Z" id="Shape"></path>
                </g>
                <text id="Design-Variations" fill="#000000" font-family="Helvetica" font-size="13" font-weight="normal">
                    <tspan x="263" y="1953">Design Variations</tspan>
                </text>
                <text id="Symbols-are-supported-in-up-to-nine-weights-and-three-scales." fill="#000000" font-family="Helvetica" font-size="13" font-weight="normal">
                    <tspan x="263" y="1971">Symbols are supported in up to nine weights and three scales.</tspan>
                </text>
                <text id="For-optimal-layout-with-text-and-other-symbols,-vertically-align" fill="#000000" font-family="Helvetica" font-size="13" font-weight="normal">
                    <tspan x="263" y="1989">For optimal layout with text and other symbols, vertically align</tspan>
                </text>
                <text id="symbols-with-the-adjacent-text." fill="#000000" font-family="Helvetica" font-size="13" font-weight="normal">
                    <tspan x="263" y="2007">symbols with the adjacent text.</tspan>
                </text>
                <line x1="776" y1="1919" x2="776" y2="1933" id="Path" stroke="#00AEEF" stroke-width="0.5"></line>
                <g id="Group" transform="translate(778.000000, 1918.000000)" fill="#000000" fill-rule="nonzero">
                    <path d="M1.31055,15.15625 C1.82812,15.15625 2.08203,14.9609375 2.26758,14.414062 L3.52734,10.9668 L9.2891,10.9668 L10.5488,14.414062 C10.7344,14.9609375 10.9883,15.15625 11.4961,15.15625 C12.0137,15.15625 12.3457,14.84375 12.3457,14.355469 C12.3457,14.189453 12.3164,14.033203 12.2383,13.82812 L7.6582,1.6309 C7.43359,1.0352 7.0332,0.7324 6.4082,0.7324 C5.80273,0.7324 5.39258,1.0254 5.17773,1.6211 L0.59766,13.83789 C0.51953,14.042969 0.49023,14.199219 0.49023,14.365234 C0.49023,14.853516 0.80273,15.15625 1.31055,15.15625 Z M4.00586,9.48242 L6.37891,2.9102 L6.42773,2.9102 L8.8008,9.48242 L4.00586,9.48242 Z" id="Shape"></path>
                </g>
                <line x1="793.197" y1="1919" x2="793.197" y2="1933" id="Path" stroke="#00AEEF" stroke-width="0.5"></line>
                <text id="Margins" fill="#000000" font-family="Helvetica" font-size="13" font-weight="normal">
                    <tspan x="776" y="1953">Margins</tspan>
                </text>
                <text id="Leading-and-trailing-margins-on-the-left-and-right-side-of-each-symbol" fill="#000000" font-family="Helvetica" font-size="13" font-weight="normal">
                    <tspan x="776" y="1971">Leading and trailing margins on the left and right side of each symbol</tspan>
                </text>
                <text id="can-be-adjusted-by-modifying-the-x-location-of-the-margin-guidelines." fill="#000000" font-family="Helvetica" font-size="13" font-weight="normal">
                    <tspan x="776" y="1989">can be adjusted by modifying the x-location of the margin guidelines.</tspan>
                </text>
                <text id="Modifications-are-automatically-applied-proportionally-to-all" fill="#000000" font-family="Helvetica" font-size="13" font-weight="normal">
                    <tspan x="776" y="2007">Modifications are automatically applied proportionally to all</tspan>
                </text>
                <text id="scales-and-weights." fill="#000000" font-family="Helvetica" font-size="13" font-weight="normal">
                    <tspan x="776" y="2025">scales and weights.</tspan>
                </text>
                <g id="Group" transform="translate(1291.000000, 1914.000000)" fill="#000000" fill-rule="nonzero">
                    <path d="M0.8418,20.86523 L2.54102,22.57422 C3.40039,23.44336 4.38672,23.38477 5.31445,22.35938 L16.0078,10.57227 L15.041,9.5957 L4.42578,21.27539 C4.07422,21.67578 3.74219,21.77344 3.27344,21.30469 L2.10156,20.14258 C1.63281,19.683594 1.74023,19.341797 2.14062,18.9804688 L13.6152,8.1797 L12.6387,7.2129 L1.04688,18.101562 C0.06055,19.0195312 -0.01758,19.996094 0.8418,20.86523 Z M7.25781,2.6719 C6.83789,3.082 6.80859,3.6582 7.04297,4.0488 C7.27734,4.4102 7.73633,4.6445 8.3809,4.4785 C9.8457,4.1367 11.3691,4.0781 12.7949,5.0156 L12.209,6.4707 C11.8672,7.3008 12.043,7.8867 12.5801,8.4336 L14.875,10.74805 C15.3633,11.23633 15.7734,11.25586 16.3398,11.1582 L17.4043,10.96289 L18.0684,11.63672 L18.0293,12.19336 C17.9902,12.69141 18.1172,13.07227 18.6055,13.55078 L19.3672,14.29297 C19.8457,14.77148 20.4609,14.80078 20.9297,14.33203 L23.8398,11.41211 C24.3086,10.94336 24.2891,10.34766 23.8105,9.86914 L23.0391,9.10742 C22.5605,8.6289 22.1895,8.4727 21.7109,8.5117 L21.1348,8.5605 L20.4902,7.9258 L20.7344,6.8027 C20.8613,6.2363 20.7051,5.7969 20.1191,5.2109 L17.9219,3.0234 C14.582,-0.2969 10.1484,-0.2188 7.25781,2.6719 Z M8.752,3.043 C11.1836,1.2656 14.4746,1.5684 16.7012,3.7949 L19.1328,6.207 C19.3672,6.4414 19.4062,6.627 19.3379,6.9688 L19.0156,8.4531 L20.5195,9.9375 L21.5059,9.87891 C21.7598,9.86914 21.8379,9.88867 22.0332,10.08398 L22.6094,10.66016 L20.168,13.10156 L19.5918,12.52539 C19.3965,12.33008 19.3672,12.25195 19.377,11.98828 L19.4453,11.01172 L17.9512,9.52734 L16.4277,9.78125 C16.1055,9.84961 15.959,9.82031 15.7148,9.58594 L13.7129,7.584 C13.459,7.3496 13.4297,7.1836 13.5859,6.8125 L14.4648,4.7227 C12.9023,3.2676 10.8711,2.6426 8.8398,3.2383 C8.6836,3.2773 8.625,3.1504 8.752,3.043 Z" id="Shape"></path>
                </g>
                <text id="Exporting" fill="#000000" font-family="Helvetica" font-size="13" font-weight="normal">
                    <tspan x="1289" y="1953">Exporting</tspan>
                </text>
                <text id="Symbols-should-be-outlined-when-exporting-to-ensure-the" fill="#000000" font-family="Helvetica" font-size="13" font-weight="normal">
                    <tspan x="1289" y="1971">Symbols should be outlined when exporting to ensure the</tspan>
                </text>
                <text id="design-is-preserved-when-submitting-to-Xcode." fill="#000000" font-family="Helvetica" font-size="13" font-weight="normal">
                    <tspan x="1289" y="1989">design is preserved when submitting to Xcode.</tspan>
                </text>
                <text id="template-version" fill="#000000" font-family="Helvetica" font-size="13" font-weight="normal">
                    <tspan x="2952" y="1933">Template v.4.0</tspan>
                </text>
                <text id="Requires-Xcode-14-or-greater" fill="#000000" font-family="Helvetica" font-size="13" font-weight="normal">
                    <tspan x="2865" y="1951">Requires Xcode 14 or greater</tspan>
                </text>
                <text id="descriptive-name" fill="#000000" font-family="Helvetica" font-size="13" font-weight="normal">
                    <tspan x="2854" y="1969">Generated from repeat.circle.fill</tspan>
                </text>
                <text id="Typeset-at-100-points" fill="#000000" font-family="Helvetica" font-size="13" font-weight="normal">
                    <tspan x="2912" y="1987">Typeset at 100 points</tspan>
                </text>
                <text id="Small" fill="#000000" font-family="Helvetica" font-size="13" font-weight="normal">
                    <tspan x="263" y="726">Small</tspan>
                </text>
                <text id="Medium" fill="#000000" font-family="Helvetica" font-size="13" font-weight="normal">
                    <tspan x="263" y="1156">Medium</tspan>
                </text>
                <text id="Large" fill="#000000" font-family="Helvetica" font-size="13" font-weight="normal">
                    <tspan x="263" y="1586">Large</tspan>
                </text>
            </g>
            <g id="Guides" transform="translate(263.000000, 600.000000)">
                <g id="H-reference" transform="translate(76.000000, 25.000000)" fill="#27AAE1" fill-rule="nonzero">
                    <path d="M0.993654,71 L3.63775,71 L29.3281,3.8677 L30.0303,3.8677 L30.0303,0.541 L28.1226,0.541 L0.993654,71 Z M11.6885,46.5201 L46.9815,46.5201 L46.2315,44.2715 L12.4385,44.2715 L11.6885,46.5201 Z M55.1196,71 L57.7637,71 L30.6382,0.541 L29.4326,0.541 L29.4326,3.8677 L55.1196,71 Z" id="Shape"></path>
                </g>
                <line x1="0" y1="96" x2="2773" y2="96" id="Baseline-S" stroke="#27AAE1" stroke-width="0.5"></line>
                <line x1="0" y1="25.541" x2="2773" y2="25.541" id="Capline-S" stroke="#27AAE1" stroke-width="0.5"></line>
                <g id="H-reference" transform="translate(76.000000, 455.000000)" fill="#27AAE1" fill-rule="nonzero">
                    <path d="M0.993654,71 L3.63775,71 L29.3281,3.8677 L30.0303,3.8677 L30.0303,0.541 L28.1226,0.541 L0.993654,71 Z M11.6885,46.5201 L46.9815,46.5201 L46.2315,44.2715 L12.4385,44.2715 L11.6885,46.5201 Z M55.1196,71 L57.7637,71 L30.6382,0.541 L29.4326,0.541 L29.4326,3.8677 L55.1196,71 Z" id="Shape"></path>
                </g>
                <line x1="0" y1="526" x2="2773" y2="526" id="Baseline-M" stroke="#27AAE1" stroke-width="0.5"></line>
                <line x1="0" y1="455.54" x2="2773" y2="455.54" id="Capline-M" stroke="#27AAE1" stroke-width="0.5"></line>
                <g id="H-reference" transform="translate(76.000000, 885.000000)" fill="#27AAE1" fill-rule="nonzero">
                    <path d="M0.993654,71 L3.63775,71 L29.3281,3.8677 L30.0303,3.8677 L30.0303,0.541 L28.1226,0.541 L0.993654,71 Z M11.6885,46.5201 L46.9815,46.5201 L46.2315,44.2715 L12.4385,44.2715 L11.6885,46.5201 Z M55.1196,71 L57.7637,71 L30.6382,0.541 L29.4326,0.541 L29.4326,3.8677 L55.1196,71 Z" id="Shape"></path>
                </g>
                <line x1="0" y1="956" x2="2773" y2="956" id="Baseline-L" stroke="#27AAE1" stroke-width="0.5"></line>
                <line x1="0" y1="885.54" x2="2773" y2="885.54" id="Capline-L" stroke="#27AAE1" stroke-width="0.5"></line>
                <line x1="252.649" y1="0.785" x2="252.649" y2="120.121" id="left-margin-Ultralight-S" stroke="#00AEEF" stroke-width="0.5"></line>
                <line x1="340.773" y1="0.785" x2="340.773" y2="120.121" id="right-margin-Ultralight-S" stroke="#00AEEF" stroke-width="0.5"></line>
                <line x1="1140.58" y1="0.785" x2="1140.58" y2="120.121" id="left-margin-Regular-S" stroke="#00AEEF" stroke-width="0.5"></line>
                <line x1="1233.11" y1="0.785" x2="1233.11" y2="120.121" id="right-margin-Regular-S" stroke="#00AEEF" stroke-width="0.5"></line>
                <line x1="2621.57" y1="0.785" x2="2621.57" y2="120.121" id="left-margin-Black-S" stroke="#00AEEF" stroke-width="0.5"></line>
                <line x1="2719.23" y1="0.785" x2="2719.23" y2="120.121" id="right-margin-Black-S" stroke="#00AEEF" stroke-width="0.5"></line>
            </g>
            <g id="Symbols" transform="translate(513.000000, 607.000000)" fill="#000000" fill-rule="nonzero">
                <g id="Black-S" transform="translate(2365.570000, 0.000000)">
                    <path d="M91.7024137,0.1 C102.105707,0.1 107.624713,5.76343479 107.624713,16.0057389 L107.624713,16.0057389 L107.624713,91.1941018 C107.624713,101.436502 102.105707,107.1 91.7024137,107.1 L91.7024137,107.1 L16.5522678,107.1 C6.15438876,107.1 0.63,101.581121 0.63,91.1941018 L0.63,91.1941018 L0.63,16.0057389 C0.63,5.6188473 6.15438876,0.1 16.5522678,0.1 L16.5522678,0.1 Z M75.1895,51.4023 C73.1875,51.4023 71.625,53.0137 71.625,54.9668 L71.625,54.9668 L71.625,57.1152 C71.625,59.8496 69.7207,61.6562 66.7422,61.6562 L66.7422,61.6562 L53.1191,61.6562 L53.1191,58.0918 C53.1191,56.2363 51.8984,55.0156 50.043,55.0156 C49.3105,55.0156 48.5293,55.2598 47.9434,55.748 L47.9434,55.748 L39.4473,62.877 C37.9336,64.1953 37.9336,66.1973 39.4473,67.4668 L39.4473,67.4668 L47.9434,74.5957 C48.5293,75.1328 49.3105,75.4258 50.043,75.4258 C51.8984,75.4258 53.1191,74.2539 53.1191,72.3496 L53.1191,72.3496 L53.1191,68.834 L66.2539,68.834 C73.8223,68.834 78.8516,64.293 78.8516,57.457 L78.8516,57.457 L78.8516,54.9668 C78.8516,52.9648 77.2402,51.4023 75.1895,51.4023 Z M58.6855,32.1641 C56.8301,32.1641 55.6094,33.3359 55.6094,35.2402 L55.6094,35.2402 L55.6094,38.707 L42.4746,38.707 C34.9062,38.707 29.877,43.248 29.877,50.084 L29.877,50.084 L29.877,52.5742 C29.877,54.5273 31.5371,56.1387 33.5391,56.1387 C35.541,56.1387 37.1035,54.5273 37.1035,52.5742 L37.1035,52.5742 L37.1035,50.4258 C37.1035,47.6914 39.0078,45.8848 41.9863,45.8848 L41.9863,45.8848 L55.6094,45.8848 L55.6094,49.498 C55.6094,51.3535 56.8301,52.5742 58.6855,52.5742 C59.418,52.5742 60.1992,52.3301 60.7852,51.8418 L60.7852,51.8418 L69.2812,44.7129 C70.8438,43.4434 70.7949,41.3926 69.2812,40.123 L69.2812,40.123 L60.7852,32.9941 C60.1992,32.457 59.418,32.1641 58.6855,32.1641 Z" id="Shape"></path>
                </g>
                <g id="Regular-S" transform="translate(887.580000, 5.000000)">
                    <path d="M83.3009154,0.6836 C92.7319381,0.6836 97.7351496,5.81774182 97.7351496,15.1028213 L97.7351496,15.1028213 L97.7351496,83.2642344 C97.7351496,92.5494004 92.7319381,97.6836 83.3009154,97.6836 L83.3009154,97.6836 L15.1741476,97.6836 C5.74803299,97.6836 0.739942247,92.680504 0.739942247,83.2642344 L0.739942247,83.2642344 L0.739942247,15.1028213 C0.739942247,5.68666718 5.74803299,0.6836 15.1741476,0.6836 L15.1741476,0.6836 Z M71.7012,47.1836 C69.9922,47.1836 68.6738,48.4531 68.6738,50.1133 L68.6738,50.1133 L68.6738,52.4082 C68.6738,55.9238 66.2324,58.2188 62.5703,58.2188 L62.5703,58.2188 L46.9941,58.2188 L46.9941,53.4824 C46.9941,51.9688 46.1152,51.0898 44.6016,51.0898 C44.0156,51.0898 43.332,51.2852 42.8438,51.6758 L42.8438,51.6758 L33.7617,59.3418 C32.541,60.3184 32.541,61.832 33.7617,62.8574 L33.7617,62.8574 L42.8438,70.5234 C43.3809,70.9629 44.0156,71.207 44.6016,71.207 C46.1152,71.207 46.9941,70.2793 46.9941,68.8145 L46.9941,68.8145 L46.9941,64.0781 L62.0332,64.0781 C69.6504,64.0781 74.6309,59.6348 74.6309,52.7012 L74.6309,52.7012 L74.6309,50.1133 C74.6309,48.4531 73.3613,47.1836 71.7012,47.1836 Z M53.8789,26.4805 C52.4141,26.4805 51.4863,27.4082 51.4863,28.873 L51.4863,28.873 L51.4863,33.5605 L36.4473,33.5605 C28.8301,33.5605 23.8496,38.0039 23.8496,44.9375 L23.8496,44.9375 L23.8496,47.5254 C23.8496,49.1367 25.168,50.4551 26.7793,50.4551 C28.4883,50.4551 29.8066,49.1367 29.8066,47.5254 L29.8066,47.5254 L29.8066,45.2305 C29.8066,41.7148 32.248,39.4199 35.9102,39.4199 L35.9102,39.4199 L51.4863,39.4199 L51.4863,44.2051 C51.4863,45.7188 52.4141,46.5977 53.8789,46.5977 C54.4648,46.5977 55.1973,46.4023 55.6367,46.0117 L55.6367,46.0117 L64.7188,38.3457 C65.9395,37.3691 65.9395,35.8555 64.7188,34.8301 L64.7188,34.8301 L55.6367,27.1641 C55.1973,26.7246 54.4648,26.4805 53.8789,26.4805 Z" id="Shape"></path>
                </g>
                <g id="Ultralight-S" transform="translate(0.649000, 7.000000)">
                    <path d="M78.8174056,0.7974 C87.8109067,0.7974 92.5820104,5.69335999 92.5820104,14.5476883 L92.5820104,14.5476883 L92.5820104,79.546974 C92.5820104,88.401385 87.8109067,93.2974 78.8174056,93.2974 L78.8174056,93.2974 L13.851158,93.2974 C4.86233734,93.2974 0.0865807002,88.5264063 0.0865807002,79.546974 L0.0865807002,79.546974 L0.0865807002,14.5476883 C0.0865807002,5.56836612 4.86233734,0.7974 13.851158,0.7974 L13.851158,0.7974 Z M66.5314807,46.6367 C65.8669807,46.6367 65.3205807,47.1343 65.3205807,47.8408 L65.3205807,47.8408 L65.3205807,49.4092 C65.3205807,53.833 62.2887807,56.8091 57.7184807,56.8091 L57.7184807,56.8091 L42.4147807,56.8091 L42.4147807,51.437 C42.4147807,50.7861 42.0353807,50.4521 41.4753807,50.4521 C41.1618807,50.4521 40.8415807,50.5566 40.4894807,50.811 L40.4894807,50.811 L32.2248807,57.1147 C31.5036807,57.6826 31.5036807,58.7422 32.2248807,59.2681 L32.2248807,59.2681 L40.4894807,65.6172 C40.8449807,65.875 41.1618807,65.9375 41.4753807,65.9375 C42.0353807,65.9375 42.4147807,65.6001 42.4147807,64.9527 L42.4147807,64.9527 L42.4147807,59.1265 L57.7262807,59.1265 C63.7541807,59.1265 67.7355807,55.228 67.7355807,49.3843 L67.7355807,49.3843 L67.7355807,47.8408 C67.7355807,47.1343 67.2380807,46.6367 66.5314807,46.6367 Z M50.4347807,27.75 C49.8781807,27.75 49.4953807,28.0874 49.4953807,28.7348 L49.4953807,28.7348 L49.4953807,34.5576 L34.2292807,34.5576 C28.1559807,34.5576 24.1745807,38.456 24.1745807,44.2998 L24.1745807,44.2998 L24.1745807,45.8433 C24.1745807,46.5464 24.6754807,47.0474 25.3786807,47.0474 C26.0431807,47.0474 26.5895807,46.5464 26.5895807,45.8433 L26.5895807,45.8433 L26.5895807,44.3203 C26.5895807,39.8511 29.6213807,36.875 34.1916807,36.875 L34.1916807,36.875 L49.4953807,36.875 L49.4953807,42.2505 C49.4953807,42.9014 49.8781807,43.2354 50.4347807,43.2354 C50.7482807,43.2354 51.0719807,43.1309 51.4206807,42.8765 L51.4206807,42.8765 L59.6852807,36.5728 C60.4064807,36.0049 60.4064807,34.9453 59.6852807,34.4194 L59.6852807,34.4194 L51.4206807,28.0703 C51.0719807,27.8125 50.7482807,27.75 50.4347807,27.75 Z" id="Shape"></path>
                </g>
            </g>
        </g>
    </g>
</svg>