<?xml version="1.0" encoding="UTF-8"?>
<svg width="3300px" height="2200px" viewBox="0 0 3300 2200" version="1.1" xmlns="http://www.w3.org/2000/svg" xmlns:xlink="http://www.w3.org/1999/xlink">
    <!-- Generator: Sketch 59.1 (86144) - https://sketch.com -->
    <title>list.bullet.fill</title>
    <desc>Created with Sketch.</desc>
    <g id="Page-1" stroke="none" stroke-width="1" fill="none" fill-rule="evenodd">
        <g id="list.bullet.fill">
            <g id="Notes">
                <rect id="artboard" fill="#FFFFFF" fill-rule="nonzero" x="0" y="0" width="3300" height="2200"></rect>
                <line x1="263" y1="292" x2="3036" y2="292" id="Path" stroke="#000000" stroke-width="0.5"></line>
                <text id="Weight/Scale-Variations" fill="#000000" font-family="Helvetica" font-size="13" font-weight="normal">
                    <tspan x="263" y="322">Weight/Scale Variations</tspan>
                </text>
                <text id="Ultralight" fill="#000000" font-family="Helvetica" font-size="13" font-weight="normal">
                    <tspan x="533.711" y="322">Ultralight</tspan>
                </text>
                <text id="Thin" fill="#000000" font-family="Helvetica" font-size="13" font-weight="normal">
                    <tspan x="843.422" y="322">Thin</tspan>
                </text>
                <text id="Light" fill="#000000" font-family="Helvetica" font-size="13" font-weight="normal">
                    <tspan x="1138.63" y="322">Light</tspan>
                </text>
                <text id="Regular" fill="#000000" font-family="Helvetica" font-size="13" font-weight="normal">
                    <tspan x="1426.84" y="322">Regular</tspan>
                </text>
                <text id="Medium" fill="#000000" font-family="Helvetica" font-size="13" font-weight="normal">
                    <tspan x="1723.06" y="322">Medium</tspan>
                </text>
                <text id="Semibold" fill="#000000" font-family="Helvetica" font-size="13" font-weight="normal">
                    <tspan x="2015.77" y="322">Semibold</tspan>
                </text>
                <text id="Bold" fill="#000000" font-family="Helvetica" font-size="13" font-weight="normal">
                    <tspan x="2326.48" y="322">Bold</tspan>
                </text>
                <text id="Heavy" fill="#000000" font-family="Helvetica" font-size="13" font-weight="normal">
                    <tspan x="2618.19" y="322">Heavy</tspan>
                </text>
                <text id="Black" fill="#000000" font-family="Helvetica" font-size="13" font-weight="normal">
                    <tspan x="2917.4" y="322">Black</tspan>
                </text>
                <line x1="263" y1="1903" x2="3036" y2="1903" id="Path" stroke="#000000" stroke-width="0.5"></line>
                <g id="Group" transform="translate(264.000000, 1918.000000)" fill="#000000" fill-rule="nonzero">
                    <path d="M8.24805,15.830078 C12.5547,15.830078 16.1387,12.25586 16.1387,7.94922 C16.1387,3.6426 12.5449,0.0684 8.23828,0.0684 C3.94141,0.0684 0.36719,3.6426 0.36719,7.94922 C0.36719,12.25586 3.95117,15.830078 8.24805,15.830078 Z M8.24805,14.345703 C4.70312,14.345703 1.87109,11.50391 1.87109,7.94922 C1.87109,4.3945 4.69336,1.5527 8.23828,1.5527 C11.793,1.5527 14.6445,4.3945 14.6445,7.94922 C14.6445,11.50391 11.8027,14.345703 8.24805,14.345703 Z M4.6543,7.94922 C4.6543,8.37891 4.95703,8.67188 5.40625,8.67188 L7.50586,8.67188 L7.50586,10.79102 C7.50586,11.23047 7.79883,11.5332 8.22852,11.5332 C8.67773,11.5332 8.9707,11.23047 8.9707,10.79102 L8.9707,8.67188 L11.0898,8.67188 C11.5293,8.67188 11.832,8.37891 11.832,7.94922 C11.832,7.50977 11.5293,7.20703 11.0898,7.20703 L8.9707,7.20703 L8.9707,5.09766 C8.9707,4.6484 8.67773,4.3457 8.22852,4.3457 C7.79883,4.3457 7.50586,4.6484 7.50586,5.09766 L7.50586,7.20703 L5.40625,7.20703 C4.95703,7.20703 4.6543,7.50977 4.6543,7.94922 Z" id="Shape"></path>
                </g>
                <g id="Group" transform="translate(282.867000, 1915.000000)" fill="#000000" fill-rule="nonzero">
                    <path d="M10.709,20.91016 C16.1582,20.91016 20.6699,16.38867 20.6699,10.94922 C20.6699,5.5 16.1484,0.9883 10.6992,0.9883 C5.25977,0.9883 0.74805,5.5 0.74805,10.94922 C0.74805,16.38867 5.26953,20.91016 10.709,20.91016 Z M10.709,19.25 C6.09961,19.25 2.41797,15.55859 2.41797,10.94922 C2.41797,6.3398 6.08984,2.6484 10.6992,2.6484 C15.3086,2.6484 19.0098,6.3398 19.0098,10.94922 C19.0098,15.55859 15.3184,19.25 10.709,19.25 Z M6.17773,10.94922 C6.17773,11.42773 6.50977,11.75 7.00781,11.75 L9.8789,11.75 L9.8789,14.63086 C9.8789,15.11914 10.2109,15.46094 10.6895,15.46094 C11.1777,15.46094 11.5195,15.12891 11.5195,14.63086 L11.5195,11.75 L14.4004,11.75 C14.8887,11.75 15.2305,11.42773 15.2305,10.94922 C15.2305,10.46094 14.8887,10.11914 14.4004,10.11914 L11.5195,10.11914 L11.5195,7.248 C11.5195,6.75 11.1777,6.4082 10.6895,6.4082 C10.2109,6.4082 9.8789,6.75 9.8789,7.248 L9.8789,10.11914 L7.00781,10.11914 C6.50977,10.11914 6.17773,10.46094 6.17773,10.94922 Z" id="Shape"></path>
                </g>
                <g id="Group" transform="translate(307.646000, 1913.000000)" fill="#000000" fill-rule="nonzero">
                    <path d="M12.9707,25.66406 C19.9336,25.66406 25.6953,19.9023438 25.6953,12.94922 C25.6953,5.9863 19.9238,0.2246 12.9609,0.2246 C6.00781,0.2246 0.25586,5.9863 0.25586,12.94922 C0.25586,19.9023438 6.01758,25.66406 12.9707,25.66406 Z M12.9707,23.84766 C6.93555,23.84766 2.08203,18.98438 2.08203,12.94922 C2.08203,6.9043 6.92578,2.0508 12.9609,2.0508 C19.0059,2.0508 23.8691,6.9043 23.8691,12.94922 C23.8691,18.98438 19.0156,23.84766 12.9707,23.84766 Z M7.19922,12.94922 C7.19922,13.4668 7.57031,13.82812 8.1172,13.82812 L12.0625,13.82812 L12.0625,17.7832 C12.0625,18.32031 12.4336,18.70117 12.9512,18.70117 C13.4883,18.70117 13.8594,18.33008 13.8594,17.7832 L13.8594,13.82812 L17.8145,13.82812 C18.3516,13.82812 18.7324,13.4668 18.7324,12.94922 C18.7324,12.40234 18.3613,12.03125 17.8145,12.03125 L13.8594,12.03125 L13.8594,8.0859 C13.8594,7.5391 13.4883,7.1582 12.9512,7.1582 C12.4336,7.1582 12.0625,7.5391 12.0625,8.0859 L12.0625,12.03125 L8.1172,12.03125 C7.57031,12.03125 7.19922,12.40234 7.19922,12.94922 Z" id="Shape"></path>
                </g>
                <text id="Design-Variations" fill="#000000" font-family="Helvetica" font-size="13" font-weight="normal">
                    <tspan x="263" y="1953">Design Variations</tspan>
                </text>
                <text id="Symbols-are-supported-in-up-to-nine-weights-and-three-scales." fill="#000000" font-family="Helvetica" font-size="13" font-weight="normal">
                    <tspan x="263" y="1971">Symbols are supported in up to nine weights and three scales.</tspan>
                </text>
                <text id="For-optimal-layout-with-text-and-other-symbols,-vertically-align" fill="#000000" font-family="Helvetica" font-size="13" font-weight="normal">
                    <tspan x="263" y="1989">For optimal layout with text and other symbols, vertically align</tspan>
                </text>
                <text id="symbols-with-the-adjacent-text." fill="#000000" font-family="Helvetica" font-size="13" font-weight="normal">
                    <tspan x="263" y="2007">symbols with the adjacent text.</tspan>
                </text>
                <line x1="776" y1="1919" x2="776" y2="1933" id="Path" stroke="#00AEEF" stroke-width="0.5"></line>
                <g id="Group" transform="translate(778.000000, 1918.000000)" fill="#000000" fill-rule="nonzero">
                    <path d="M1.31055,15.15625 C1.82812,15.15625 2.08203,14.9609375 2.26758,14.414062 L3.52734,10.9668 L9.2891,10.9668 L10.5488,14.414062 C10.7344,14.9609375 10.9883,15.15625 11.4961,15.15625 C12.0137,15.15625 12.3457,14.84375 12.3457,14.355469 C12.3457,14.189453 12.3164,14.033203 12.2383,13.82812 L7.6582,1.6309 C7.43359,1.0352 7.0332,0.7324 6.4082,0.7324 C5.80273,0.7324 5.39258,1.0254 5.17773,1.6211 L0.59766,13.83789 C0.51953,14.042969 0.49023,14.199219 0.49023,14.365234 C0.49023,14.853516 0.80273,15.15625 1.31055,15.15625 Z M4.00586,9.48242 L6.37891,2.9102 L6.42773,2.9102 L8.8008,9.48242 L4.00586,9.48242 Z" id="Shape"></path>
                </g>
                <line x1="793.197" y1="1919" x2="793.197" y2="1933" id="Path" stroke="#00AEEF" stroke-width="0.5"></line>
                <text id="Margins" fill="#000000" font-family="Helvetica" font-size="13" font-weight="normal">
                    <tspan x="776" y="1953">Margins</tspan>
                </text>
                <text id="Leading-and-trailing-margins-on-the-left-and-right-side-of-each-symbol" fill="#000000" font-family="Helvetica" font-size="13" font-weight="normal">
                    <tspan x="776" y="1971">Leading and trailing margins on the left and right side of each symbol</tspan>
                </text>
                <text id="can-be-adjusted-by-modifying-the-x-location-of-the-margin-guidelines." fill="#000000" font-family="Helvetica" font-size="13" font-weight="normal">
                    <tspan x="776" y="1989">can be adjusted by modifying the x-location of the margin guidelines.</tspan>
                </text>
                <text id="Modifications-are-automatically-applied-proportionally-to-all" fill="#000000" font-family="Helvetica" font-size="13" font-weight="normal">
                    <tspan x="776" y="2007">Modifications are automatically applied proportionally to all</tspan>
                </text>
                <text id="scales-and-weights." fill="#000000" font-family="Helvetica" font-size="13" font-weight="normal">
                    <tspan x="776" y="2025">scales and weights.</tspan>
                </text>
                <g id="Group" transform="translate(1291.000000, 1914.000000)" fill="#000000" fill-rule="nonzero">
                    <path d="M0.8418,20.86523 L2.54102,22.57422 C3.40039,23.44336 4.38672,23.38477 5.31445,22.35938 L16.0078,10.57227 L15.041,9.5957 L4.42578,21.27539 C4.07422,21.67578 3.74219,21.77344 3.27344,21.30469 L2.10156,20.14258 C1.63281,19.683594 1.74023,19.341797 2.14062,18.9804688 L13.6152,8.1797 L12.6387,7.2129 L1.04688,18.101562 C0.06055,19.0195312 -0.01758,19.996094 0.8418,20.86523 Z M7.25781,2.6719 C6.83789,3.082 6.80859,3.6582 7.04297,4.0488 C7.27734,4.4102 7.73633,4.6445 8.3809,4.4785 C9.8457,4.1367 11.3691,4.0781 12.7949,5.0156 L12.209,6.4707 C11.8672,7.3008 12.043,7.8867 12.5801,8.4336 L14.875,10.74805 C15.3633,11.23633 15.7734,11.25586 16.3398,11.1582 L17.4043,10.96289 L18.0684,11.63672 L18.0293,12.19336 C17.9902,12.69141 18.1172,13.07227 18.6055,13.55078 L19.3672,14.29297 C19.8457,14.77148 20.4609,14.80078 20.9297,14.33203 L23.8398,11.41211 C24.3086,10.94336 24.2891,10.34766 23.8105,9.86914 L23.0391,9.10742 C22.5605,8.6289 22.1895,8.4727 21.7109,8.5117 L21.1348,8.5605 L20.4902,7.9258 L20.7344,6.8027 C20.8613,6.2363 20.7051,5.7969 20.1191,5.2109 L17.9219,3.0234 C14.582,-0.2969 10.1484,-0.2188 7.25781,2.6719 Z M8.752,3.043 C11.1836,1.2656 14.4746,1.5684 16.7012,3.7949 L19.1328,6.207 C19.3672,6.4414 19.4062,6.627 19.3379,6.9688 L19.0156,8.4531 L20.5195,9.9375 L21.5059,9.87891 C21.7598,9.86914 21.8379,9.88867 22.0332,10.08398 L22.6094,10.66016 L20.168,13.10156 L19.5918,12.52539 C19.3965,12.33008 19.3672,12.25195 19.377,11.98828 L19.4453,11.01172 L17.9512,9.52734 L16.4277,9.78125 C16.1055,9.84961 15.959,9.82031 15.7148,9.58594 L13.7129,7.584 C13.459,7.3496 13.4297,7.1836 13.5859,6.8125 L14.4648,4.7227 C12.9023,3.2676 10.8711,2.6426 8.8398,3.2383 C8.6836,3.2773 8.625,3.1504 8.752,3.043 Z" id="Shape"></path>
                </g>
                <text id="Exporting" fill="#000000" font-family="Helvetica" font-size="13" font-weight="normal">
                    <tspan x="1289" y="1953">Exporting</tspan>
                </text>
                <text id="Symbols-should-be-outlined-when-exporting-to-ensure-the" fill="#000000" font-family="Helvetica" font-size="13" font-weight="normal">
                    <tspan x="1289" y="1971">Symbols should be outlined when exporting to ensure the</tspan>
                </text>
                <text id="design-is-preserved-when-submitting-to-Xcode." fill="#000000" font-family="Helvetica" font-size="13" font-weight="normal">
                    <tspan x="1289" y="1989">design is preserved when submitting to Xcode.</tspan>
                </text>
                <text id="template-version" fill="#000000" font-family="Helvetica" font-size="13" font-weight="normal">
                    <tspan x="2952" y="1933">Template v.4.0</tspan>
                </text>
                <text id="Requires-Xcode-14-or-greater" fill="#000000" font-family="Helvetica" font-size="13" font-weight="normal">
                    <tspan x="2865" y="1951">Requires Xcode 14 or greater</tspan>
                </text>
                <text id="descriptive-name" fill="#000000" font-family="Helvetica" font-size="13" font-weight="normal">
                    <tspan x="2874" y="1969">Generated from list.bullet.fill</tspan>
                </text>
                <text id="Typeset-at-100-points" fill="#000000" font-family="Helvetica" font-size="13" font-weight="normal">
                    <tspan x="2912" y="1987">Typeset at 100 points</tspan>
                </text>
                <text id="Small" fill="#000000" font-family="Helvetica" font-size="13" font-weight="normal">
                    <tspan x="263" y="726">Small</tspan>
                </text>
                <text id="Medium" fill="#000000" font-family="Helvetica" font-size="13" font-weight="normal">
                    <tspan x="263" y="1156">Medium</tspan>
                </text>
                <text id="Large" fill="#000000" font-family="Helvetica" font-size="13" font-weight="normal">
                    <tspan x="263" y="1586">Large</tspan>
                </text>
            </g>
            <g id="Guides" transform="translate(263.000000, 600.000000)">
                <g id="H-reference" transform="translate(76.000000, 25.000000)" fill="#27AAE1" fill-rule="nonzero">
                    <path d="M0.993654,71 L3.63775,71 L29.3281,3.8677 L30.0303,3.8677 L30.0303,0.541 L28.1226,0.541 L0.993654,71 Z M11.6885,46.5201 L46.9815,46.5201 L46.2315,44.2715 L12.4385,44.2715 L11.6885,46.5201 Z M55.1196,71 L57.7637,71 L30.6382,0.541 L29.4326,0.541 L29.4326,3.8677 L55.1196,71 Z" id="Shape"></path>
                </g>
                <line x1="0" y1="96" x2="2773" y2="96" id="Baseline-S" stroke="#27AAE1" stroke-width="0.5"></line>
                <line x1="0" y1="25.541" x2="2773" y2="25.541" id="Capline-S" stroke="#27AAE1" stroke-width="0.5"></line>
                <g id="H-reference" transform="translate(76.000000, 455.000000)" fill="#27AAE1" fill-rule="nonzero">
                    <path d="M0.993654,71 L3.63775,71 L29.3281,3.8677 L30.0303,3.8677 L30.0303,0.541 L28.1226,0.541 L0.993654,71 Z M11.6885,46.5201 L46.9815,46.5201 L46.2315,44.2715 L12.4385,44.2715 L11.6885,46.5201 Z M55.1196,71 L57.7637,71 L30.6382,0.541 L29.4326,0.541 L29.4326,3.8677 L55.1196,71 Z" id="Shape"></path>
                </g>
                <line x1="0" y1="526" x2="2773" y2="526" id="Baseline-M" stroke="#27AAE1" stroke-width="0.5"></line>
                <line x1="0" y1="455.54" x2="2773" y2="455.54" id="Capline-M" stroke="#27AAE1" stroke-width="0.5"></line>
                <g id="H-reference" transform="translate(76.000000, 885.000000)" fill="#27AAE1" fill-rule="nonzero">
                    <path d="M0.993654,71 L3.63775,71 L29.3281,3.8677 L30.0303,3.8677 L30.0303,0.541 L28.1226,0.541 L0.993654,71 Z M11.6885,46.5201 L46.9815,46.5201 L46.2315,44.2715 L12.4385,44.2715 L11.6885,46.5201 Z M55.1196,71 L57.7637,71 L30.6382,0.541 L29.4326,0.541 L29.4326,3.8677 L55.1196,71 Z" id="Shape"></path>
                </g>
                <line x1="0" y1="956" x2="2773" y2="956" id="Baseline-L" stroke="#27AAE1" stroke-width="0.5"></line>
                <line x1="0" y1="885.54" x2="2773" y2="885.54" id="Capline-L" stroke="#27AAE1" stroke-width="0.5"></line>
                <line x1="250.207" y1="0.784" x2="250.207" y2="120.121" id="left-margin-Ultralight-S" stroke="#00AEEF" stroke-width="0.5"></line>
                <line x1="343.215" y1="1.784" x2="343.215" y2="121.121" id="right-margin-Ultralight-S" stroke="#00AEEF" stroke-width="0.5"></line>
                <line x1="1138.14" y1="0.784" x2="1138.14" y2="120.121" id="left-margin-Regular-S" stroke="#00AEEF" stroke-width="0.5"></line>
                <line x1="1235.55" y1="0.784" x2="1235.55" y2="120.121" id="right-margin-Regular-S" stroke="#00AEEF" stroke-width="0.5"></line>
                <line x1="2616.69" y1="0.784" x2="2616.69" y2="120.121" id="left-margin-Black-S" stroke="#00AEEF" stroke-width="0.5"></line>
                <line x1="2724.11" y1="0.784" x2="2724.11" y2="120.121" id="right-margin-Black-S" stroke="#00AEEF" stroke-width="0.5"></line>
            </g>
            <g id="Symbols" transform="translate(513.000000, 607.000000)" fill="#000000" fill-rule="nonzero">
                <g id="Black-S" transform="translate(2366.690000, 0.000000)">
                    <path d="M91.3824137,0.29495 C101.785707,0.29495 107.304713,5.95838479 107.304713,16.2006889 L107.304713,16.2006889 L107.304713,91.3890518 C107.304713,101.631452 101.785707,107.29495 91.3824137,107.29495 L91.3824137,107.29495 L16.2322678,107.29495 C5.83438876,107.29495 0.31,101.776071 0.31,91.3890518 L0.31,91.3890518 L0.31,16.2006889 C0.31,5.8137973 5.83438876,0.29495 16.2322678,0.29495 L16.2322678,0.29495 Z M17.9688,70.8848 C13.4766,70.8848 9.76562,74.5957 9.76562,79.08789 C9.76562,83.58008 13.4766,87.29102 17.9688,87.29102 C22.4609,87.29102 26.1719,83.58008 26.1719,79.08789 C26.1719,74.5957 22.4609,70.8848 17.9688,70.8848 Z M91.3086,72.7402 L40.7715,72.7402 C37.2559,72.7402 34.4238,75.5234 34.4238,79.08789 C34.4238,82.60352 37.207,85.43555 40.7715,85.43555 L91.3086,85.43555 C94.8242,85.43555 97.6562,82.65234 97.6562,79.08789 C97.6562,75.5723 94.873,72.7402 91.3086,72.7402 Z M17.9688,45.5918 C13.4766,45.5918 9.76562,49.3027 9.76562,53.7949 C9.76562,58.2871 13.4766,61.998 17.9688,61.998 C22.4609,61.998 26.1719,58.2871 26.1719,53.7949 C26.1719,49.3027 22.4609,45.5918 17.9688,45.5918 Z M91.3086,47.4473 L40.7715,47.4473 C37.2559,47.4473 34.4238,50.2305 34.4238,53.7949 C34.4238,57.3105 37.207,60.1426 40.7715,60.1426 L91.3086,60.1426 C94.8242,60.1426 97.6562,57.3594 97.6562,53.7949 C97.6562,50.2793 94.873,47.4473 91.3086,47.4473 Z M17.9688,20.2988 C13.4766,20.2988 9.76562,24.0098 9.76562,28.502 C9.76562,32.9941 13.4766,36.7051 17.9688,36.7051 C22.4609,36.7051 26.1719,32.9941 26.1719,28.502 C26.1719,24.0098 22.4609,20.2988 17.9688,20.2988 Z M91.3086,22.1543 L40.7715,22.1543 C37.2559,22.1543 34.4238,24.9375 34.4238,28.502 C34.4238,32.0176 37.207,34.8496 40.7715,34.8496 L91.3086,34.8496 C94.8242,34.8496 97.6562,32.0664 97.6562,28.502 C97.6562,24.9863 94.873,22.1543 91.3086,22.1543 Z" id="Shape"></path>
                </g>
                <g id="Regular-S" transform="translate(888.140000, 5.000000)">
                    <path d="M82.9209732,0.29495 C92.3519959,0.29495 97.3552074,5.42909182 97.3552074,14.7141713 L97.3552074,14.7141713 L97.3552074,82.8755844 C97.3552074,92.1607504 92.3519959,97.29495 82.9209732,97.29495 L82.9209732,97.29495 L14.7942054,97.29495 C5.36809074,97.29495 0.36,92.291854 0.36,82.8755844 L0.36,82.8755844 L0.36,14.7141713 C0.36,5.29801718 5.36809074,0.29495 14.7942054,0.29495 L14.7942054,0.29495 Z M14.7461,67.1055 C12.0117,67.1055 9.76562,69.3516 9.76562,72.0859 C9.76562,74.82031 12.0117,77.06641 14.7461,77.06641 C17.4805,77.06641 19.7266,74.82031 19.7266,72.0859 C19.7266,69.3516 17.4805,67.1055 14.7461,67.1055 Z M84.1309,68.5703 L32.0312,68.5703 C30.0781,68.5703 28.5156,70.1328 28.5156,72.0859 C28.5156,74.03906 30.0781,75.60156 32.0312,75.60156 L84.1309,75.60156 C86.084,75.60156 87.6465,74.03906 87.6465,72.0859 C87.6465,70.1328 86.084,68.5703 84.1309,68.5703 Z M14.7461,43.8145 C12.0117,43.8145 9.76562,46.0605 9.76562,48.7949 C9.76562,51.5293 12.0117,53.7754 14.7461,53.7754 C17.4805,53.7754 19.7266,51.5293 19.7266,48.7949 C19.7266,46.0605 17.4805,43.8145 14.7461,43.8145 Z M84.1309,45.2793 L32.0312,45.2793 C30.0781,45.2793 28.5156,46.8418 28.5156,48.7949 C28.5156,50.748 30.0781,52.3105 32.0312,52.3105 L84.1309,52.3105 C86.084,52.3105 87.6465,50.748 87.6465,48.7949 C87.6465,46.8418 86.084,45.2793 84.1309,45.2793 Z M14.7461,20.5234 C12.0117,20.5234 9.76562,22.7695 9.76562,25.5039 C9.76562,28.2383 12.0117,30.4844 14.7461,30.4844 C17.4805,30.4844 19.7266,28.2383 19.7266,25.5039 C19.7266,22.7695 17.4805,20.5234 14.7461,20.5234 Z M84.1309,21.9883 L32.0312,21.9883 C30.0781,21.9883 28.5156,23.5508 28.5156,25.5039 C28.5156,27.457 30.0781,29.0195 32.0312,29.0195 L84.1309,29.0195 C86.084,29.0195 87.6465,27.457 87.6465,25.5039 C87.6465,23.5508 86.084,21.9883 84.1309,21.9883 Z" id="Shape"></path>
                </g>
                <g id="Ultralight-S" transform="translate(0.207000, 7.000000)">
                    <path d="M79.0238249,0.5449 C88.017326,0.5449 92.7884297,5.44085999 92.7884297,14.2951883 L92.7884297,14.2951883 L92.7884297,79.294474 C92.7884297,88.148885 88.017326,93.0449 79.0238249,93.0449 L79.0238249,93.0449 L14.0575773,93.0449 C5.06875664,93.0449 0.293,88.2739063 0.293,79.294474 L0.293,79.294474 L0.293,14.2951883 C0.293,5.31586612 5.06875664,0.5449 14.0575773,0.5449 L14.0575773,0.5449 Z M13.8833,65.1055 C11.603,65.1055 9.76562,66.9429 9.76562,69.2232 C9.76562,71.458 11.603,73.29542 13.8833,73.29542 C16.1182,73.29542 17.9556,71.458 17.9556,69.2232 C17.9556,66.9429 16.1182,65.1055 13.8833,65.1055 Z M82.1328,68.1142 L28.9888,68.1142 C28.3071,68.1142 27.8799,68.5415 27.8799,69.2232 C27.8799,69.8594 28.3071,70.2866 28.9888,70.2866 L82.1328,70.2866 C82.7691,70.2866 83.2417,69.8594 83.2417,69.2232 C83.2417,68.5415 82.7691,68.1142 82.1328,68.1142 Z M13.8833,42.6772 C11.603,42.6772 9.76562,44.5146 9.76562,46.7949 C9.76562,49.0752 11.603,50.9126 13.8833,50.9126 C16.1182,50.9126 17.9556,49.0752 17.9556,46.7949 C17.9556,44.5146 16.1182,42.6772 13.8833,42.6772 Z M82.1328,45.686 L28.9888,45.686 C28.3071,45.686 27.8799,46.1587 27.8799,46.7949 C27.8799,47.4312 28.3071,47.9038 28.9888,47.9038 L82.1328,47.9038 C82.7691,47.9038 83.2417,47.4312 83.2417,46.7949 C83.2417,46.1587 82.7691,45.686 82.1328,45.686 Z M13.8833,20.2944 C11.603,20.2944 9.76562,22.1318 9.76562,24.3667 C9.76562,26.647 11.603,28.4844 13.8833,28.4844 C16.1182,28.4844 17.9556,26.647 17.9556,24.3667 C17.9556,22.1318 16.1182,20.2944 13.8833,20.2944 Z M82.1328,23.3032 L28.9888,23.3032 C28.3071,23.3032 27.8799,23.7305 27.8799,24.3667 C27.8799,25.0483 28.3071,25.4756 28.9888,25.4756 L82.1328,25.4756 C82.7691,25.4756 83.2417,25.0483 83.2417,24.3667 C83.2417,23.7305 82.7691,23.3032 82.1328,23.3032 Z" id="Shape"></path>
                </g>
            </g>
        </g>
    </g>
</svg>